<?xml version="1.0" encoding="utf-8" ?>
<svg baseProfile="full" height="4096px" version="1.1" width="4096px" xmlns="http://www.w3.org/2000/svg" xmlns:ev="http://www.w3.org/2001/xml-events" xmlns:xlink="http://www.w3.org/1999/xlink"><defs /><polyline clip-path="url(#border_clip)" fill="none" points="2048.5,2048.5 2018.5,2048.5 2018.5,1688.5 1988.5,1688.5" stroke="black" stroke-linecap="round" stroke-width="1" /><polyline clip-path="url(#border_clip)" fill="none" points="2048.5,2018.5 2027.5,2018.5" stroke="black" stroke-linecap="round" stroke-width="1" /><polyline clip-path="url(#border_clip)" fill="none" points="2048.5,1988.5 2027.5,1988.5" stroke="black" stroke-linecap="round" stroke-width="1" /><polyline clip-path="url(#border_clip)" fill="none" points="2048.5,1958.5 2027.5,1958.5" stroke="black" stroke-linecap="round" stroke-width="1" /><polyline clip-path="url(#border_clip)" fill="none" points="2048.5,1928.5 2027.5,1928.5" stroke="black" stroke-linecap="round" stroke-width="1" /><polyline clip-path="url(#border_clip)" fill="none" points="2048.5,1898.5 2027.5,1898.5" stroke="black" stroke-linecap="round" stroke-width="1" /><polyline clip-path="url(#border_clip)" fill="none" points="2048.5,1868.5 2027.5,1868.5" stroke="black" stroke-linecap="round" stroke-width="1" /><polyline clip-path="url(#border_clip)" fill="none" points="2048.5,1838.5 2027.5,1838.5" stroke="black" stroke-linecap="round" stroke-width="1" /><polyline clip-path="url(#border_clip)" fill="none" points="2048.5,1808.5 2027.5,1808.5" stroke="black" stroke-linecap="round" stroke-width="1" /><polyline clip-path="url(#border_clip)" fill="none" points="2048.5,1778.5 2027.5,1778.5" stroke="black" stroke-linecap="round" stroke-width="1" /><polyline clip-path="url(#border_clip)" fill="none" points="2048.5,1748.5 2027.5,1748.5" stroke="black" stroke-linecap="round" stroke-width="1" /><polyline clip-path="url(#border_clip)" fill="none" points="2048.5,1718.5 2027.5,1718.5" stroke="black" stroke-linecap="round" stroke-width="1" /><polyline clip-path="url(#border_clip)" fill="none" points="2012.5,2018.5 1982.5,2018.5 1982.5,1658.5 1952.5,1658.5" stroke="black" stroke-linecap="round" stroke-width="1" /><polyline clip-path="url(#border_clip)" fill="none" points="2012.5,1988.5 1991.5,1988.5" stroke="black" stroke-linecap="round" stroke-width="1" /><polyline clip-path="url(#border_clip)" fill="none" points="2012.5,1958.5 1991.5,1958.5" stroke="black" stroke-linecap="round" stroke-width="1" /><polyline clip-path="url(#border_clip)" fill="none" points="2012.5,1928.5 1991.5,1928.5" stroke="black" stroke-linecap="round" stroke-width="1" /><polyline clip-path="url(#border_clip)" fill="none" points="2012.5,1898.5 1991.5,1898.5" stroke="black" stroke-linecap="round" stroke-width="1" /><polyline clip-path="url(#border_clip)" fill="none" points="2012.5,1868.5 1991.5,1868.5" stroke="black" stroke-linecap="round" stroke-width="1" /><polyline clip-path="url(#border_clip)" fill="none" points="2012.5,1838.5 1991.5,1838.5" stroke="black" stroke-linecap="round" stroke-width="1" /><polyline clip-path="url(#border_clip)" fill="none" points="2012.5,1808.5 1991.5,1808.5" stroke="black" stroke-linecap="round" stroke-width="1" /><polyline clip-path="url(#border_clip)" fill="none" points="2012.5,1778.5 1991.5,1778.5" stroke="black" stroke-linecap="round" stroke-width="1" /><polyline clip-path="url(#border_clip)" fill="none" points="2012.5,1748.5 1991.5,1748.5" stroke="black" stroke-linecap="round" stroke-width="1" /><polyline clip-path="url(#border_clip)" fill="none" points="2012.5,1718.5 1991.5,1718.5" stroke="black" stroke-linecap="round" stroke-width="1" /><polyline clip-path="url(#border_clip)" fill="none" points="2012.5,1688.5 1991.5,1688.5" stroke="black" stroke-linecap="round" stroke-width="1" /><polyline clip-path="url(#border_clip)" fill="none" points="1976.5,1988.5 1946.5,1988.5 1946.5,1628.5 1916.5,1628.5" stroke="black" stroke-linecap="round" stroke-width="1" /><polyline clip-path="url(#border_clip)" fill="none" points="1976.5,1958.5 1955.5,1958.5" stroke="black" stroke-linecap="round" stroke-width="1" /><polyline clip-path="url(#border_clip)" fill="none" points="1976.5,1928.5 1955.5,1928.5" stroke="black" stroke-linecap="round" stroke-width="1" /><polyline clip-path="url(#border_clip)" fill="none" points="1976.5,1898.5 1955.5,1898.5" stroke="black" stroke-linecap="round" stroke-width="1" /><polyline clip-path="url(#border_clip)" fill="none" points="1976.5,1868.5 1955.5,1868.5" stroke="black" stroke-linecap="round" stroke-width="1" /><polyline clip-path="url(#border_clip)" fill="none" points="1976.5,1838.5 1955.5,1838.5" stroke="black" stroke-linecap="round" stroke-width="1" /><polyline clip-path="url(#border_clip)" fill="none" points="1976.5,1808.5 1955.5,1808.5" stroke="black" stroke-linecap="round" stroke-width="1" /><polyline clip-path="url(#border_clip)" fill="none" points="1976.5,1778.5 1955.5,1778.5" stroke="black" stroke-linecap="round" stroke-width="1" /><polyline clip-path="url(#border_clip)" fill="none" points="1976.5,1748.5 1955.5,1748.5" stroke="black" stroke-linecap="round" stroke-width="1" /><polyline clip-path="url(#border_clip)" fill="none" points="1976.5,1718.5 1955.5,1718.5" stroke="black" stroke-linecap="round" stroke-width="1" /><polyline clip-path="url(#border_clip)" fill="none" points="1976.5,1688.5 1955.5,1688.5" stroke="black" stroke-linecap="round" stroke-width="1" /><polyline clip-path="url(#border_clip)" fill="none" points="1976.5,1658.5 1955.5,1658.5" stroke="black" stroke-linecap="round" stroke-width="1" /><polyline clip-path="url(#border_clip)" fill="none" points="1940.5,1958.5 1910.5,1958.5 1910.5,1598.5 1880.5,1598.5" stroke="black" stroke-linecap="round" stroke-width="1" /><polyline clip-path="url(#border_clip)" fill="none" points="1940.5,1928.5 1919.5,1928.5" stroke="black" stroke-linecap="round" stroke-width="1" /><polyline clip-path="url(#border_clip)" fill="none" points="1940.5,1898.5 1919.5,1898.5" stroke="black" stroke-linecap="round" stroke-width="1" /><polyline clip-path="url(#border_clip)" fill="none" points="1940.5,1868.5 1919.5,1868.5" stroke="black" stroke-linecap="round" stroke-width="1" /><polyline clip-path="url(#border_clip)" fill="none" points="1940.5,1838.5 1919.5,1838.5" stroke="black" stroke-linecap="round" stroke-width="1" /><polyline clip-path="url(#border_clip)" fill="none" points="1940.5,1808.5 1919.5,1808.5" stroke="black" stroke-linecap="round" stroke-width="1" /><polyline clip-path="url(#border_clip)" fill="none" points="1940.5,1778.5 1919.5,1778.5" stroke="black" stroke-linecap="round" stroke-width="1" /><polyline clip-path="url(#border_clip)" fill="none" points="1940.5,1748.5 1919.5,1748.5" stroke="black" stroke-linecap="round" stroke-width="1" /><polyline clip-path="url(#border_clip)" fill="none" points="1940.5,1718.5 1919.5,1718.5" stroke="black" stroke-linecap="round" stroke-width="1" /><polyline clip-path="url(#border_clip)" fill="none" points="1940.5,1688.5 1919.5,1688.5" stroke="black" stroke-linecap="round" stroke-width="1" /><polyline clip-path="url(#border_clip)" fill="none" points="1940.5,1658.5 1919.5,1658.5" stroke="black" stroke-linecap="round" stroke-width="1" /><polyline clip-path="url(#border_clip)" fill="none" points="1940.5,1628.5 1919.5,1628.5" stroke="black" stroke-linecap="round" stroke-width="1" /><polyline clip-path="url(#border_clip)" fill="none" points="1904.5,1928.5 1874.5,1928.5 1874.5,1568.5 1844.5,1568.5" stroke="black" stroke-linecap="round" stroke-width="1" /><polyline clip-path="url(#border_clip)" fill="none" points="1904.5,1898.5 1883.5,1898.5" stroke="black" stroke-linecap="round" stroke-width="1" /><polyline clip-path="url(#border_clip)" fill="none" points="1904.5,1868.5 1883.5,1868.5" stroke="black" stroke-linecap="round" stroke-width="1" /><polyline clip-path="url(#border_clip)" fill="none" points="1904.5,1838.5 1883.5,1838.5" stroke="black" stroke-linecap="round" stroke-width="1" /><polyline clip-path="url(#border_clip)" fill="none" points="1904.5,1808.5 1883.5,1808.5" stroke="black" stroke-linecap="round" stroke-width="1" /><polyline clip-path="url(#border_clip)" fill="none" points="1904.5,1778.5 1883.5,1778.5" stroke="black" stroke-linecap="round" stroke-width="1" /><polyline clip-path="url(#border_clip)" fill="none" points="1904.5,1748.5 1883.5,1748.5" stroke="black" stroke-linecap="round" stroke-width="1" /><polyline clip-path="url(#border_clip)" fill="none" points="1904.5,1718.5 1883.5,1718.5" stroke="black" stroke-linecap="round" stroke-width="1" /><polyline clip-path="url(#border_clip)" fill="none" points="1904.5,1688.5 1883.5,1688.5" stroke="black" stroke-linecap="round" stroke-width="1" /><polyline clip-path="url(#border_clip)" fill="none" points="1904.5,1658.5 1883.5,1658.5" stroke="black" stroke-linecap="round" stroke-width="1" /><polyline clip-path="url(#border_clip)" fill="none" points="1904.5,1628.5 1883.5,1628.5" stroke="black" stroke-linecap="round" stroke-width="1" /><polyline clip-path="url(#border_clip)" fill="none" points="1904.5,1598.5 1883.5,1598.5" stroke="black" stroke-linecap="round" stroke-width="1" /><polyline clip-path="url(#border_clip)" fill="none" points="1868.5,1898.5 1838.5,1898.5 1838.5,1538.5 1808.5,1538.5" stroke="black" stroke-linecap="round" stroke-width="1" /><polyline clip-path="url(#border_clip)" fill="none" points="1868.5,1868.5 1847.5,1868.5" stroke="black" stroke-linecap="round" stroke-width="1" /><polyline clip-path="url(#border_clip)" fill="none" points="1868.5,1838.5 1847.5,1838.5" stroke="black" stroke-linecap="round" stroke-width="1" /><polyline clip-path="url(#border_clip)" fill="none" points="1868.5,1808.5 1847.5,1808.5" stroke="black" stroke-linecap="round" stroke-width="1" /><polyline clip-path="url(#border_clip)" fill="none" points="1868.5,1778.5 1847.5,1778.5" stroke="black" stroke-linecap="round" stroke-width="1" /><polyline clip-path="url(#border_clip)" fill="none" points="1868.5,1748.5 1847.5,1748.5" stroke="black" stroke-linecap="round" stroke-width="1" /><polyline clip-path="url(#border_clip)" fill="none" points="1868.5,1718.5 1847.5,1718.5" stroke="black" stroke-linecap="round" stroke-width="1" /><polyline clip-path="url(#border_clip)" fill="none" points="1868.5,1688.5 1847.5,1688.5" stroke="black" stroke-linecap="round" stroke-width="1" /><polyline clip-path="url(#border_clip)" fill="none" points="1868.5,1658.5 1847.5,1658.5" stroke="black" stroke-linecap="round" stroke-width="1" /><polyline clip-path="url(#border_clip)" fill="none" points="1868.5,1628.5 1847.5,1628.5" stroke="black" stroke-linecap="round" stroke-width="1" /><polyline clip-path="url(#border_clip)" fill="none" points="1868.5,1598.5 1847.5,1598.5" stroke="black" stroke-linecap="round" stroke-width="1" /><polyline clip-path="url(#border_clip)" fill="none" points="1868.5,1568.5 1847.5,1568.5" stroke="black" stroke-linecap="round" stroke-width="1" /><polyline clip-path="url(#border_clip)" fill="none" points="1832.5,1868.5 1802.5,1868.5 1802.5,1508.5 1772.5,1508.5" stroke="black" stroke-linecap="round" stroke-width="1" /><polyline clip-path="url(#border_clip)" fill="none" points="1832.5,1838.5 1811.5,1838.5" stroke="black" stroke-linecap="round" stroke-width="1" /><polyline clip-path="url(#border_clip)" fill="none" points="1832.5,1808.5 1811.5,1808.5" stroke="black" stroke-linecap="round" stroke-width="1" /><polyline clip-path="url(#border_clip)" fill="none" points="1832.5,1778.5 1811.5,1778.5" stroke="black" stroke-linecap="round" stroke-width="1" /><polyline clip-path="url(#border_clip)" fill="none" points="1832.5,1748.5 1811.5,1748.5" stroke="black" stroke-linecap="round" stroke-width="1" /><polyline clip-path="url(#border_clip)" fill="none" points="1832.5,1718.5 1811.5,1718.5" stroke="black" stroke-linecap="round" stroke-width="1" /><polyline clip-path="url(#border_clip)" fill="none" points="1832.5,1688.5 1811.5,1688.5" stroke="black" stroke-linecap="round" stroke-width="1" /><polyline clip-path="url(#border_clip)" fill="none" points="1832.5,1658.5 1811.5,1658.5" stroke="black" stroke-linecap="round" stroke-width="1" /><polyline clip-path="url(#border_clip)" fill="none" points="1832.5,1628.5 1811.5,1628.5" stroke="black" stroke-linecap="round" stroke-width="1" /><polyline clip-path="url(#border_clip)" fill="none" points="1832.5,1598.5 1811.5,1598.5" stroke="black" stroke-linecap="round" stroke-width="1" /><polyline clip-path="url(#border_clip)" fill="none" points="1832.5,1568.5 1811.5,1568.5" stroke="black" stroke-linecap="round" stroke-width="1" /><polyline clip-path="url(#border_clip)" fill="none" points="1832.5,1538.5 1811.5,1538.5" stroke="black" stroke-linecap="round" stroke-width="1" /><polyline clip-path="url(#border_clip)" fill="none" points="1796.5,1838.5 1766.5,1838.5 1766.5,1478.5 1736.5,1478.5" stroke="black" stroke-linecap="round" stroke-width="1" /><polyline clip-path="url(#border_clip)" fill="none" points="1796.5,1808.5 1775.5,1808.5" stroke="black" stroke-linecap="round" stroke-width="1" /><polyline clip-path="url(#border_clip)" fill="none" points="1796.5,1778.5 1775.5,1778.5" stroke="black" stroke-linecap="round" stroke-width="1" /><polyline clip-path="url(#border_clip)" fill="none" points="1796.5,1748.5 1775.5,1748.5" stroke="black" stroke-linecap="round" stroke-width="1" /><polyline clip-path="url(#border_clip)" fill="none" points="1796.5,1718.5 1775.5,1718.5" stroke="black" stroke-linecap="round" stroke-width="1" /><polyline clip-path="url(#border_clip)" fill="none" points="1796.5,1688.5 1775.5,1688.5" stroke="black" stroke-linecap="round" stroke-width="1" /><polyline clip-path="url(#border_clip)" fill="none" points="1796.5,1658.5 1775.5,1658.5" stroke="black" stroke-linecap="round" stroke-width="1" /><polyline clip-path="url(#border_clip)" fill="none" points="1796.5,1628.5 1775.5,1628.5" stroke="black" stroke-linecap="round" stroke-width="1" /><polyline clip-path="url(#border_clip)" fill="none" points="1796.5,1598.5 1775.5,1598.5" stroke="black" stroke-linecap="round" stroke-width="1" /><polyline clip-path="url(#border_clip)" fill="none" points="1796.5,1568.5 1775.5,1568.5" stroke="black" stroke-linecap="round" stroke-width="1" /><polyline clip-path="url(#border_clip)" fill="none" points="1796.5,1538.5 1775.5,1538.5" stroke="black" stroke-linecap="round" stroke-width="1" /><polyline clip-path="url(#border_clip)" fill="none" points="1796.5,1508.5 1775.5,1508.5" stroke="black" stroke-linecap="round" stroke-width="1" /><polyline clip-path="url(#border_clip)" fill="none" points="1760.5,1808.5 1730.5,1808.5 1730.5,1448.5 1700.5,1448.5" stroke="black" stroke-linecap="round" stroke-width="1" /><polyline clip-path="url(#border_clip)" fill="none" points="1760.5,1778.5 1739.5,1778.5" stroke="black" stroke-linecap="round" stroke-width="1" /><polyline clip-path="url(#border_clip)" fill="none" points="1760.5,1748.5 1739.5,1748.5" stroke="black" stroke-linecap="round" stroke-width="1" /><polyline clip-path="url(#border_clip)" fill="none" points="1760.5,1718.5 1739.5,1718.5" stroke="black" stroke-linecap="round" stroke-width="1" /><polyline clip-path="url(#border_clip)" fill="none" points="1760.5,1688.5 1739.5,1688.5" stroke="black" stroke-linecap="round" stroke-width="1" /><polyline clip-path="url(#border_clip)" fill="none" points="1760.5,1658.5 1739.5,1658.5" stroke="black" stroke-linecap="round" stroke-width="1" /><polyline clip-path="url(#border_clip)" fill="none" points="1760.5,1628.5 1739.5,1628.5" stroke="black" stroke-linecap="round" stroke-width="1" /><polyline clip-path="url(#border_clip)" fill="none" points="1760.5,1598.5 1739.5,1598.5" stroke="black" stroke-linecap="round" stroke-width="1" /><polyline clip-path="url(#border_clip)" fill="none" points="1760.5,1568.5 1739.5,1568.5" stroke="black" stroke-linecap="round" stroke-width="1" /><polyline clip-path="url(#border_clip)" fill="none" points="1760.5,1538.5 1739.5,1538.5" stroke="black" stroke-linecap="round" stroke-width="1" /><polyline clip-path="url(#border_clip)" fill="none" points="1760.5,1508.5 1739.5,1508.5" stroke="black" stroke-linecap="round" stroke-width="1" /><polyline clip-path="url(#border_clip)" fill="none" points="1760.5,1478.5 1739.5,1478.5" stroke="black" stroke-linecap="round" stroke-width="1" /><polyline clip-path="url(#border_clip)" fill="none" points="1724.5,1778.5 1694.5,1778.5 1694.5,1418.5 1664.5,1418.5" stroke="black" stroke-linecap="round" stroke-width="1" /><polyline clip-path="url(#border_clip)" fill="none" points="1724.5,1748.5 1703.5,1748.5" stroke="black" stroke-linecap="round" stroke-width="1" /><polyline clip-path="url(#border_clip)" fill="none" points="1724.5,1718.5 1703.5,1718.5" stroke="black" stroke-linecap="round" stroke-width="1" /><polyline clip-path="url(#border_clip)" fill="none" points="1724.5,1688.5 1703.5,1688.5" stroke="black" stroke-linecap="round" stroke-width="1" /><polyline clip-path="url(#border_clip)" fill="none" points="1724.5,1658.5 1703.5,1658.5" stroke="black" stroke-linecap="round" stroke-width="1" /><polyline clip-path="url(#border_clip)" fill="none" points="1724.5,1628.5 1703.5,1628.5" stroke="black" stroke-linecap="round" stroke-width="1" /><polyline clip-path="url(#border_clip)" fill="none" points="1724.5,1598.5 1703.5,1598.5" stroke="black" stroke-linecap="round" stroke-width="1" /><polyline clip-path="url(#border_clip)" fill="none" points="1724.5,1568.5 1703.5,1568.5" stroke="black" stroke-linecap="round" stroke-width="1" /><polyline clip-path="url(#border_clip)" fill="none" points="1724.5,1538.5 1703.5,1538.5" stroke="black" stroke-linecap="round" stroke-width="1" /><polyline clip-path="url(#border_clip)" fill="none" points="1724.5,1508.5 1703.5,1508.5" stroke="black" stroke-linecap="round" stroke-width="1" /><polyline clip-path="url(#border_clip)" fill="none" points="1724.5,1478.5 1703.5,1478.5" stroke="black" stroke-linecap="round" stroke-width="1" /><polyline clip-path="url(#border_clip)" fill="none" points="1724.5,1448.5 1703.5,1448.5" stroke="black" stroke-linecap="round" stroke-width="1" /><polyline clip-path="url(#border_clip)" fill="none" points="1688.5,1748.5 1658.5,1748.5 1658.5,1388.5 1628.5,1388.5" stroke="black" stroke-linecap="round" stroke-width="1" /><polyline clip-path="url(#border_clip)" fill="none" points="1688.5,1718.5 1667.5,1718.5" stroke="black" stroke-linecap="round" stroke-width="1" /><polyline clip-path="url(#border_clip)" fill="none" points="1688.5,1688.5 1667.5,1688.5" stroke="black" stroke-linecap="round" stroke-width="1" /><polyline clip-path="url(#border_clip)" fill="none" points="1688.5,1658.5 1667.5,1658.5" stroke="black" stroke-linecap="round" stroke-width="1" /><polyline clip-path="url(#border_clip)" fill="none" points="1688.5,1628.5 1667.5,1628.5" stroke="black" stroke-linecap="round" stroke-width="1" /><polyline clip-path="url(#border_clip)" fill="none" points="1688.5,1598.5 1667.5,1598.5" stroke="black" stroke-linecap="round" stroke-width="1" /><polyline clip-path="url(#border_clip)" fill="none" points="1688.5,1568.5 1667.5,1568.5" stroke="black" stroke-linecap="round" stroke-width="1" /><polyline clip-path="url(#border_clip)" fill="none" points="1688.5,1538.5 1667.5,1538.5" stroke="black" stroke-linecap="round" stroke-width="1" /><polyline clip-path="url(#border_clip)" fill="none" points="1688.5,1508.5 1667.5,1508.5" stroke="black" stroke-linecap="round" stroke-width="1" /><polyline clip-path="url(#border_clip)" fill="none" points="1688.5,1478.5 1667.5,1478.5" stroke="black" stroke-linecap="round" stroke-width="1" /><polyline clip-path="url(#border_clip)" fill="none" points="1688.5,1448.5 1667.5,1448.5" stroke="black" stroke-linecap="round" stroke-width="1" /><polyline clip-path="url(#border_clip)" fill="none" points="1688.5,1418.5 1667.5,1418.5" stroke="black" stroke-linecap="round" stroke-width="1" /><polyline clip-path="url(#border_clip)" fill="none" points="1652.5,1718.5 1622.5,1718.5 1622.5,1358.5 1592.5,1358.5" stroke="black" stroke-linecap="round" stroke-width="1" /><polyline clip-path="url(#border_clip)" fill="none" points="1652.5,1688.5 1631.5,1688.5" stroke="black" stroke-linecap="round" stroke-width="1" /><polyline clip-path="url(#border_clip)" fill="none" points="1652.5,1658.5 1631.5,1658.5" stroke="black" stroke-linecap="round" stroke-width="1" /><polyline clip-path="url(#border_clip)" fill="none" points="1652.5,1628.5 1631.5,1628.5" stroke="black" stroke-linecap="round" stroke-width="1" /><polyline clip-path="url(#border_clip)" fill="none" points="1652.5,1598.5 1631.5,1598.5" stroke="black" stroke-linecap="round" stroke-width="1" /><polyline clip-path="url(#border_clip)" fill="none" points="1652.5,1568.5 1631.5,1568.5" stroke="black" stroke-linecap="round" stroke-width="1" /><polyline clip-path="url(#border_clip)" fill="none" points="1652.5,1538.5 1631.5,1538.5" stroke="black" stroke-linecap="round" stroke-width="1" /><polyline clip-path="url(#border_clip)" fill="none" points="1652.5,1508.5 1631.5,1508.5" stroke="black" stroke-linecap="round" stroke-width="1" /><polyline clip-path="url(#border_clip)" fill="none" points="1652.5,1478.5 1631.5,1478.5" stroke="black" stroke-linecap="round" stroke-width="1" /><polyline clip-path="url(#border_clip)" fill="none" points="1652.5,1448.5 1631.5,1448.5" stroke="black" stroke-linecap="round" stroke-width="1" /><polyline clip-path="url(#border_clip)" fill="none" points="1652.5,1418.5 1631.5,1418.5" stroke="black" stroke-linecap="round" stroke-width="1" /><polyline clip-path="url(#border_clip)" fill="none" points="1652.5,1388.5 1631.5,1388.5" stroke="black" stroke-linecap="round" stroke-width="1" /><polyline clip-path="url(#border_clip)" fill="none" points="1616.5,1688.5 1586.5,1688.5 1586.5,1328.5 1556.5,1328.5" stroke="black" stroke-linecap="round" stroke-width="1" /><polyline clip-path="url(#border_clip)" fill="none" points="1616.5,1658.5 1595.5,1658.5" stroke="black" stroke-linecap="round" stroke-width="1" /><polyline clip-path="url(#border_clip)" fill="none" points="1616.5,1628.5 1595.5,1628.5" stroke="black" stroke-linecap="round" stroke-width="1" /><polyline clip-path="url(#border_clip)" fill="none" points="1616.5,1598.5 1595.5,1598.5" stroke="black" stroke-linecap="round" stroke-width="1" /><polyline clip-path="url(#border_clip)" fill="none" points="1616.5,1568.5 1595.5,1568.5" stroke="black" stroke-linecap="round" stroke-width="1" /><polyline clip-path="url(#border_clip)" fill="none" points="1616.5,1538.5 1595.5,1538.5" stroke="black" stroke-linecap="round" stroke-width="1" /><polyline clip-path="url(#border_clip)" fill="none" points="1616.5,1508.5 1595.5,1508.5" stroke="black" stroke-linecap="round" stroke-width="1" /><polyline clip-path="url(#border_clip)" fill="none" points="1616.5,1478.5 1595.5,1478.5" stroke="black" stroke-linecap="round" stroke-width="1" /><polyline clip-path="url(#border_clip)" fill="none" points="1616.5,1448.5 1595.5,1448.5" stroke="black" stroke-linecap="round" stroke-width="1" /><polyline clip-path="url(#border_clip)" fill="none" points="1616.5,1418.5 1595.5,1418.5" stroke="black" stroke-linecap="round" stroke-width="1" /><polyline clip-path="url(#border_clip)" fill="none" points="1616.5,1388.5 1595.5,1388.5" stroke="black" stroke-linecap="round" stroke-width="1" /><polyline clip-path="url(#border_clip)" fill="none" points="1616.5,1358.5 1595.5,1358.5" stroke="black" stroke-linecap="round" stroke-width="1" /><polyline clip-path="url(#border_clip)" fill="none" points="1580.5,1658.5 1550.5,1658.5 1550.5,1298.5 1520.5,1298.5" stroke="black" stroke-linecap="round" stroke-width="1" /><polyline clip-path="url(#border_clip)" fill="none" points="1580.5,1628.5 1559.5,1628.5" stroke="black" stroke-linecap="round" stroke-width="1" /><polyline clip-path="url(#border_clip)" fill="none" points="1580.5,1598.5 1559.5,1598.5" stroke="black" stroke-linecap="round" stroke-width="1" /><polyline clip-path="url(#border_clip)" fill="none" points="1580.5,1568.5 1559.5,1568.5" stroke="black" stroke-linecap="round" stroke-width="1" /><polyline clip-path="url(#border_clip)" fill="none" points="1580.5,1538.5 1559.5,1538.5" stroke="black" stroke-linecap="round" stroke-width="1" /><polyline clip-path="url(#border_clip)" fill="none" points="1580.5,1508.5 1559.5,1508.5" stroke="black" stroke-linecap="round" stroke-width="1" /><polyline clip-path="url(#border_clip)" fill="none" points="1580.5,1478.5 1559.5,1478.5" stroke="black" stroke-linecap="round" stroke-width="1" /><polyline clip-path="url(#border_clip)" fill="none" points="1580.5,1448.5 1559.5,1448.5" stroke="black" stroke-linecap="round" stroke-width="1" /><polyline clip-path="url(#border_clip)" fill="none" points="1580.5,1418.5 1559.5,1418.5" stroke="black" stroke-linecap="round" stroke-width="1" /><polyline clip-path="url(#border_clip)" fill="none" points="1580.5,1388.5 1559.5,1388.5" stroke="black" stroke-linecap="round" stroke-width="1" /><polyline clip-path="url(#border_clip)" fill="none" points="1580.5,1358.5 1559.5,1358.5" stroke="black" stroke-linecap="round" stroke-width="1" /><polyline clip-path="url(#border_clip)" fill="none" points="1580.5,1328.5 1559.5,1328.5" stroke="black" stroke-linecap="round" stroke-width="1" /><polyline clip-path="url(#border_clip)" fill="none" points="1544.5,1628.5 1514.5,1628.5 1514.5,1268.5 1484.5,1268.5" stroke="black" stroke-linecap="round" stroke-width="1" /><polyline clip-path="url(#border_clip)" fill="none" points="1544.5,1598.5 1523.5,1598.5" stroke="black" stroke-linecap="round" stroke-width="1" /><polyline clip-path="url(#border_clip)" fill="none" points="1544.5,1568.5 1523.5,1568.5" stroke="black" stroke-linecap="round" stroke-width="1" /><polyline clip-path="url(#border_clip)" fill="none" points="1544.5,1538.5 1523.5,1538.5" stroke="black" stroke-linecap="round" stroke-width="1" /><polyline clip-path="url(#border_clip)" fill="none" points="1544.5,1508.5 1523.5,1508.5" stroke="black" stroke-linecap="round" stroke-width="1" /><polyline clip-path="url(#border_clip)" fill="none" points="1544.5,1478.5 1523.5,1478.5" stroke="black" stroke-linecap="round" stroke-width="1" /><polyline clip-path="url(#border_clip)" fill="none" points="1544.5,1448.5 1523.5,1448.5" stroke="black" stroke-linecap="round" stroke-width="1" /><polyline clip-path="url(#border_clip)" fill="none" points="1544.5,1418.5 1523.5,1418.5" stroke="black" stroke-linecap="round" stroke-width="1" /><polyline clip-path="url(#border_clip)" fill="none" points="1544.5,1388.5 1523.5,1388.5" stroke="black" stroke-linecap="round" stroke-width="1" /><polyline clip-path="url(#border_clip)" fill="none" points="1544.5,1358.5 1523.5,1358.5" stroke="black" stroke-linecap="round" stroke-width="1" /><polyline clip-path="url(#border_clip)" fill="none" points="1544.5,1328.5 1523.5,1328.5" stroke="black" stroke-linecap="round" stroke-width="1" /><polyline clip-path="url(#border_clip)" fill="none" points="1544.5,1298.5 1523.5,1298.5" stroke="black" stroke-linecap="round" stroke-width="1" /><polyline clip-path="url(#border_clip)" fill="none" points="1508.5,1598.5 1478.5,1598.5 1478.5,1238.5 1448.5,1238.5" stroke="black" stroke-linecap="round" stroke-width="1" /><polyline clip-path="url(#border_clip)" fill="none" points="1508.5,1568.5 1487.5,1568.5" stroke="black" stroke-linecap="round" stroke-width="1" /><polyline clip-path="url(#border_clip)" fill="none" points="1508.5,1538.5 1487.5,1538.5" stroke="black" stroke-linecap="round" stroke-width="1" /><polyline clip-path="url(#border_clip)" fill="none" points="1508.5,1508.5 1487.5,1508.5" stroke="black" stroke-linecap="round" stroke-width="1" /><polyline clip-path="url(#border_clip)" fill="none" points="1508.5,1478.5 1487.5,1478.5" stroke="black" stroke-linecap="round" stroke-width="1" /><polyline clip-path="url(#border_clip)" fill="none" points="1508.5,1448.5 1487.5,1448.5" stroke="black" stroke-linecap="round" stroke-width="1" /><polyline clip-path="url(#border_clip)" fill="none" points="1508.5,1418.5 1487.5,1418.5" stroke="black" stroke-linecap="round" stroke-width="1" /><polyline clip-path="url(#border_clip)" fill="none" points="1508.5,1388.5 1487.5,1388.5" stroke="black" stroke-linecap="round" stroke-width="1" /><polyline clip-path="url(#border_clip)" fill="none" points="1508.5,1358.5 1487.5,1358.5" stroke="black" stroke-linecap="round" stroke-width="1" /><polyline clip-path="url(#border_clip)" fill="none" points="1508.5,1328.5 1487.5,1328.5" stroke="black" stroke-linecap="round" stroke-width="1" /><polyline clip-path="url(#border_clip)" fill="none" points="1508.5,1298.5 1487.5,1298.5" stroke="black" stroke-linecap="round" stroke-width="1" /><polyline clip-path="url(#border_clip)" fill="none" points="1508.5,1268.5 1487.5,1268.5" stroke="black" stroke-linecap="round" stroke-width="1" /><polyline clip-path="url(#border_clip)" fill="none" points="1472.5,1568.5 1442.5,1568.5 1442.5,1208.5 1412.5,1208.5" stroke="black" stroke-linecap="round" stroke-width="1" /><polyline clip-path="url(#border_clip)" fill="none" points="1472.5,1538.5 1451.5,1538.5" stroke="black" stroke-linecap="round" stroke-width="1" /><polyline clip-path="url(#border_clip)" fill="none" points="1472.5,1508.5 1451.5,1508.5" stroke="black" stroke-linecap="round" stroke-width="1" /><polyline clip-path="url(#border_clip)" fill="none" points="1472.5,1478.5 1451.5,1478.5" stroke="black" stroke-linecap="round" stroke-width="1" /><polyline clip-path="url(#border_clip)" fill="none" points="1472.5,1448.5 1451.5,1448.5" stroke="black" stroke-linecap="round" stroke-width="1" /><polyline clip-path="url(#border_clip)" fill="none" points="1472.5,1418.5 1451.5,1418.5" stroke="black" stroke-linecap="round" stroke-width="1" /><polyline clip-path="url(#border_clip)" fill="none" points="1472.5,1388.5 1451.5,1388.5" stroke="black" stroke-linecap="round" stroke-width="1" /><polyline clip-path="url(#border_clip)" fill="none" points="1472.5,1358.5 1451.5,1358.5" stroke="black" stroke-linecap="round" stroke-width="1" /><polyline clip-path="url(#border_clip)" fill="none" points="1472.5,1328.5 1451.5,1328.5" stroke="black" stroke-linecap="round" stroke-width="1" /><polyline clip-path="url(#border_clip)" fill="none" points="1472.5,1298.5 1451.5,1298.5" stroke="black" stroke-linecap="round" stroke-width="1" /><polyline clip-path="url(#border_clip)" fill="none" points="1472.5,1268.5 1451.5,1268.5" stroke="black" stroke-linecap="round" stroke-width="1" /><polyline clip-path="url(#border_clip)" fill="none" points="1472.5,1238.5 1451.5,1238.5" stroke="black" stroke-linecap="round" stroke-width="1" /><polyline clip-path="url(#border_clip)" fill="none" points="1436.5,1538.5 1406.5,1538.5 1406.5,1178.5 1376.5,1178.5" stroke="black" stroke-linecap="round" stroke-width="1" /><polyline clip-path="url(#border_clip)" fill="none" points="1436.5,1508.5 1415.5,1508.5" stroke="black" stroke-linecap="round" stroke-width="1" /><polyline clip-path="url(#border_clip)" fill="none" points="1436.5,1478.5 1415.5,1478.5" stroke="black" stroke-linecap="round" stroke-width="1" /><polyline clip-path="url(#border_clip)" fill="none" points="1436.5,1448.5 1415.5,1448.5" stroke="black" stroke-linecap="round" stroke-width="1" /><polyline clip-path="url(#border_clip)" fill="none" points="1436.5,1418.5 1415.5,1418.5" stroke="black" stroke-linecap="round" stroke-width="1" /><polyline clip-path="url(#border_clip)" fill="none" points="1436.5,1388.5 1415.5,1388.5" stroke="black" stroke-linecap="round" stroke-width="1" /><polyline clip-path="url(#border_clip)" fill="none" points="1436.5,1358.5 1415.5,1358.5" stroke="black" stroke-linecap="round" stroke-width="1" /><polyline clip-path="url(#border_clip)" fill="none" points="1436.5,1328.5 1415.5,1328.5" stroke="black" stroke-linecap="round" stroke-width="1" /><polyline clip-path="url(#border_clip)" fill="none" points="1436.5,1298.5 1415.5,1298.5" stroke="black" stroke-linecap="round" stroke-width="1" /><polyline clip-path="url(#border_clip)" fill="none" points="1436.5,1268.5 1415.5,1268.5" stroke="black" stroke-linecap="round" stroke-width="1" /><polyline clip-path="url(#border_clip)" fill="none" points="1436.5,1238.5 1415.5,1238.5" stroke="black" stroke-linecap="round" stroke-width="1" /><polyline clip-path="url(#border_clip)" fill="none" points="1436.5,1208.5 1415.5,1208.5" stroke="black" stroke-linecap="round" stroke-width="1" /><polyline clip-path="url(#border_clip)" fill="none" points="1400.5,1508.5 1370.5,1508.5 1370.5,1148.5 1340.5,1148.5" stroke="black" stroke-linecap="round" stroke-width="1" /><polyline clip-path="url(#border_clip)" fill="none" points="1400.5,1478.5 1379.5,1478.5" stroke="black" stroke-linecap="round" stroke-width="1" /><polyline clip-path="url(#border_clip)" fill="none" points="1400.5,1448.5 1379.5,1448.5" stroke="black" stroke-linecap="round" stroke-width="1" /><polyline clip-path="url(#border_clip)" fill="none" points="1400.5,1418.5 1379.5,1418.5" stroke="black" stroke-linecap="round" stroke-width="1" /><polyline clip-path="url(#border_clip)" fill="none" points="1400.5,1388.5 1379.5,1388.5" stroke="black" stroke-linecap="round" stroke-width="1" /><polyline clip-path="url(#border_clip)" fill="none" points="1400.5,1358.5 1379.5,1358.5" stroke="black" stroke-linecap="round" stroke-width="1" /><polyline clip-path="url(#border_clip)" fill="none" points="1400.5,1328.5 1379.5,1328.5" stroke="black" stroke-linecap="round" stroke-width="1" /><polyline clip-path="url(#border_clip)" fill="none" points="1400.5,1298.5 1379.5,1298.5" stroke="black" stroke-linecap="round" stroke-width="1" /><polyline clip-path="url(#border_clip)" fill="none" points="1400.5,1268.5 1379.5,1268.5" stroke="black" stroke-linecap="round" stroke-width="1" /><polyline clip-path="url(#border_clip)" fill="none" points="1400.5,1238.5 1379.5,1238.5" stroke="black" stroke-linecap="round" stroke-width="1" /><polyline clip-path="url(#border_clip)" fill="none" points="1400.5,1208.5 1379.5,1208.5" stroke="black" stroke-linecap="round" stroke-width="1" /><polyline clip-path="url(#border_clip)" fill="none" points="1400.5,1178.5 1379.5,1178.5" stroke="black" stroke-linecap="round" stroke-width="1" /><polyline clip-path="url(#border_clip)" fill="none" points="1364.5,1478.5 1328.5,1478.5" stroke="black" stroke-linecap="round" stroke-width="1" /><polyline clip-path="url(#border_clip)" fill="none" points="1364.5,1448.5 1328.5,1448.5" stroke="black" stroke-linecap="round" stroke-width="1" /><polyline clip-path="url(#border_clip)" fill="none" points="1364.5,1418.5 1328.5,1418.5" stroke="black" stroke-linecap="round" stroke-width="1" /><polyline clip-path="url(#border_clip)" fill="none" points="1364.5,1388.5 1328.5,1388.5" stroke="black" stroke-linecap="round" stroke-width="1" /><polyline clip-path="url(#border_clip)" fill="none" points="1364.5,1358.5 1328.5,1358.5" stroke="black" stroke-linecap="round" stroke-width="1" /><polyline clip-path="url(#border_clip)" fill="none" points="1364.5,1328.5 1328.5,1328.5" stroke="black" stroke-linecap="round" stroke-width="1" /><polyline clip-path="url(#border_clip)" fill="none" points="1364.5,1298.5 1328.5,1298.5" stroke="black" stroke-linecap="round" stroke-width="1" /><polyline clip-path="url(#border_clip)" fill="none" points="1364.5,1268.5 1328.5,1268.5" stroke="black" stroke-linecap="round" stroke-width="1" /><polyline clip-path="url(#border_clip)" fill="none" points="1364.5,1238.5 1328.5,1238.5" stroke="black" stroke-linecap="round" stroke-width="1" /><polyline clip-path="url(#border_clip)" fill="none" points="1364.5,1208.5 1328.5,1208.5" stroke="black" stroke-linecap="round" stroke-width="1" /><polyline clip-path="url(#border_clip)" fill="none" points="1364.5,1178.5 1328.5,1178.5" stroke="black" stroke-linecap="round" stroke-width="1" /><polyline clip-path="url(#border_clip)" fill="none" points="1364.5,1148.5 1328.5,1148.5" stroke="black" stroke-linecap="round" stroke-width="1" /><polyline clip-path="url(#border_clip)" fill="none" points="2048.5,2048.5 2078.5,2048.5 2078.5,2078.5 1312.5,2078.5000000000005 1312.4999999999998,1478.5000000000002 1342.4999999999998,1478.5000000000002" stroke="black" stroke-linecap="round" stroke-width="1" /><polyline clip-path="url(#border_clip)" fill="none" points="2048.5,2018.5 2108.5,2018.5 2108.5,2108.5 1282.5,2108.5000000000005 1282.4999999999995,1448.5000000000005 1342.4999999999995,1448.5000000000005" stroke="black" stroke-linecap="round" stroke-width="1" /><polyline clip-path="url(#border_clip)" fill="none" points="2048.5,1988.5 2138.5,1988.5 2138.5,2138.5 1252.5,2138.500000000001 1252.4999999999995,1418.5000000000007 1342.4999999999995,1418.5000000000005" stroke="black" stroke-linecap="round" stroke-width="1" /><polyline clip-path="url(#border_clip)" fill="none" points="2048.5,1958.5 2168.5,1958.5 2168.5,2168.5 1222.5000000000002,2168.500000000001 1222.4999999999993,1388.500000000001 1342.4999999999993,1388.500000000001" stroke="black" stroke-linecap="round" stroke-width="1" /><polyline clip-path="url(#border_clip)" fill="none" points="2048.5,1928.5 2198.5,1928.4999999999998 2198.5000000000005,2198.5 1192.5000000000005,2198.5000000000014 1192.499999999999,1358.5000000000011 1342.499999999999,1358.500000000001" stroke="black" stroke-linecap="round" stroke-width="1" /><polyline clip-path="url(#border_clip)" fill="none" points="2048.5,1898.5 2228.5,1898.4999999999998 2228.5000000000005,2228.4999999999995 1162.5000000000005,2228.5000000000014 1162.499999999999,1328.5000000000014 1342.499999999999,1328.5000000000011" stroke="black" stroke-linecap="round" stroke-width="1" /><polyline clip-path="url(#border_clip)" fill="none" points="2048.5,1868.5 2258.5,1868.4999999999995 2258.500000000001,2258.4999999999995 1132.5000000000007,2258.500000000002 1132.4999999999989,1298.5000000000018 1342.4999999999989,1298.5000000000014" stroke="black" stroke-linecap="round" stroke-width="1" /><polyline clip-path="url(#border_clip)" fill="none" points="2048.5,1838.5 2288.5,1838.4999999999995 2288.500000000001,2288.4999999999995 1102.500000000001,2288.500000000002 1102.4999999999986,1268.500000000002 1342.4999999999986,1268.5000000000014" stroke="black" stroke-linecap="round" stroke-width="1" /><polyline clip-path="url(#border_clip)" fill="none" points="2048.5,1808.5 2318.5,1808.4999999999993 2318.500000000001,2318.4999999999995 1072.5000000000011,2318.5000000000023 1072.4999999999986,1238.5000000000023 1342.4999999999986,1238.5000000000016" stroke="black" stroke-linecap="round" stroke-width="1" /><polyline clip-path="url(#border_clip)" fill="none" points="2048.5,1778.5 2348.5,1778.4999999999993 2348.5000000000014,2348.499999999999 1042.5000000000014,2348.5000000000027 1042.4999999999984,1208.5000000000027 1342.4999999999984,1208.5000000000018" stroke="black" stroke-linecap="round" stroke-width="1" /><polyline clip-path="url(#border_clip)" fill="none" points="2048.5,1748.5 2378.5,1748.499999999999 2378.500000000002,2378.499999999999 1012.5000000000018,2378.5000000000027 1012.4999999999984,1178.500000000003 1342.4999999999984,1178.5000000000018" stroke="black" stroke-linecap="round" stroke-width="1" /><polyline clip-path="url(#border_clip)" fill="none" points="2048.5,1718.5 2408.5,1718.4999999999989 2408.500000000002,2408.499999999999 982.500000000002,2408.500000000003 982.4999999999982,1148.5000000000032 1342.4999999999982,1148.5000000000023" stroke="black" stroke-linecap="round" stroke-width="1" /><polyline clip-path="url(#border_clip)" fill="none" points="1778.5,2078.5 2048.5,2078.499999999999" stroke="#d5d3d3" stroke-linecap="round" stroke-width="1" /><polyline clip-path="url(#border_clip)" fill="none" points="1778.5,2258.5 2048.5,2258.499999999999" stroke="#d5d3d3" stroke-linecap="round" stroke-width="1" /><polyline clip-path="url(#border_clip)" fill="none" points="1778.5,2078.5 1778.5,2087.5" stroke="black" stroke-linecap="round" stroke-width="1" /><polyline clip-path="url(#border_clip)" fill="none" points="1787.5,2108.5 1769.5,2108.5" stroke="#d5d3d3" stroke-linecap="round" stroke-width="1" /><polyline clip-path="url(#border_clip)" fill="none" points="1778.5,2087.5 1778.5000000000002,2117.5 1778.5000000000002,2129.5" stroke="black" stroke-linecap="round" stroke-width="1" /><polyline clip-path="url(#border_clip)" fill="none" points="1787.5,2168.5 1769.5,2168.5" stroke="#d5d3d3" stroke-linecap="round" stroke-width="1" /><polyline clip-path="url(#border_clip)" fill="none" points="1778.5000000000002,2147.5 1778.5000000000005,2177.5" stroke="black" stroke-linecap="round" stroke-width="1" /><polyline clip-path="url(#border_clip)" fill="none" points="1787.5,2198.5 1769.5,2198.5" stroke="#d5d3d3" stroke-linecap="round" stroke-width="1" /><polyline clip-path="url(#border_clip)" fill="none" points="1778.5000000000005,2177.5 1778.5000000000005,2207.5" stroke="black" stroke-linecap="round" stroke-width="1" /><polyline clip-path="url(#border_clip)" fill="none" points="1787.5,2228.5 1769.5,2228.5" stroke="#d5d3d3" stroke-linecap="round" stroke-width="1" /><polyline clip-path="url(#border_clip)" fill="none" points="1778.5000000000005,2207.5 1778.5000000000007,2237.5 1778.5000000000007,2258.5" stroke="black" stroke-linecap="round" stroke-width="1" /><polyline clip-path="url(#border_clip)" fill="none" points="2048.5,2078.499999999999 2048.5,2087.499999999999" stroke="black" stroke-linecap="round" stroke-width="1" /><polyline clip-path="url(#border_clip)" fill="none" points="2057.5,2108.499999999999 2039.5,2108.499999999999" stroke="#d5d3d3" stroke-linecap="round" stroke-width="1" /><polyline clip-path="url(#border_clip)" fill="none" points="2048.5,2087.499999999999 2048.5,2117.499999999999 2048.5,2129.499999999999" stroke="black" stroke-linecap="round" stroke-width="1" /><polyline clip-path="url(#border_clip)" fill="none" points="2057.5,2168.499999999999 2039.5,2168.499999999999" stroke="#d5d3d3" stroke-linecap="round" stroke-width="1" /><polyline clip-path="url(#border_clip)" fill="none" points="2048.5,2147.499999999999 2048.5000000000005,2177.499999999999" stroke="black" stroke-linecap="round" stroke-width="1" /><polyline clip-path="url(#border_clip)" fill="none" points="2057.5,2198.499999999999 2039.5,2198.499999999999" stroke="#d5d3d3" stroke-linecap="round" stroke-width="1" /><polyline clip-path="url(#border_clip)" fill="none" points="2048.5000000000005,2177.499999999999 2048.5000000000005,2207.499999999999" stroke="black" stroke-linecap="round" stroke-width="1" /><polyline clip-path="url(#border_clip)" fill="none" points="2057.5,2228.499999999999 2039.5,2228.499999999999" stroke="#d5d3d3" stroke-linecap="round" stroke-width="1" /><polyline clip-path="url(#border_clip)" fill="none" points="2048.5000000000005,2207.499999999999 2048.5000000000005,2237.499999999999 2048.5000000000005,2258.499999999999" stroke="black" stroke-linecap="round" stroke-width="1" /></svg>