<?xml version="1.0" encoding="utf-8" ?>
<svg baseProfile="full" height="2048px" version="1.1" width="2048px" xmlns="http://www.w3.org/2000/svg" xmlns:ev="http://www.w3.org/2001/xml-events" xmlns:xlink="http://www.w3.org/1999/xlink"><defs /><polyline clip-path="url(#border_clip)" fill="none" points="1024.5,1024.5 994.5,1024.5 994.5,844.5 964.5,844.5" stroke="black" stroke-linecap="round" stroke-width="1" /><polyline clip-path="url(#border_clip)" fill="none" points="1024.5,994.5 1003.5,994.5" stroke="black" stroke-linecap="round" stroke-width="1" /><polyline clip-path="url(#border_clip)" fill="none" points="1024.5,964.5 1003.5,964.5" stroke="black" stroke-linecap="round" stroke-width="1" /><polyline clip-path="url(#border_clip)" fill="none" points="1024.5,934.5 1003.5,934.5" stroke="black" stroke-linecap="round" stroke-width="1" /><polyline clip-path="url(#border_clip)" fill="none" points="1024.5,904.5 1003.5,904.5" stroke="black" stroke-linecap="round" stroke-width="1" /><polyline clip-path="url(#border_clip)" fill="none" points="1024.5,874.5 1003.5,874.5" stroke="black" stroke-linecap="round" stroke-width="1" /><polyline clip-path="url(#border_clip)" fill="none" points="988.5,994.5 958.5,994.5 958.5,814.5 928.5,814.5" stroke="black" stroke-linecap="round" stroke-width="1" /><polyline clip-path="url(#border_clip)" fill="none" points="988.5,964.5 967.5,964.5" stroke="black" stroke-linecap="round" stroke-width="1" /><polyline clip-path="url(#border_clip)" fill="none" points="988.5,934.5 967.5,934.5" stroke="black" stroke-linecap="round" stroke-width="1" /><polyline clip-path="url(#border_clip)" fill="none" points="988.5,904.5 967.5,904.5" stroke="black" stroke-linecap="round" stroke-width="1" /><polyline clip-path="url(#border_clip)" fill="none" points="988.5,874.5 967.5,874.5" stroke="black" stroke-linecap="round" stroke-width="1" /><polyline clip-path="url(#border_clip)" fill="none" points="988.5,844.5 967.5,844.5" stroke="black" stroke-linecap="round" stroke-width="1" /><polyline clip-path="url(#border_clip)" fill="none" points="952.5,964.5 922.5,964.5 922.5,784.5 892.5,784.5" stroke="black" stroke-linecap="round" stroke-width="1" /><polyline clip-path="url(#border_clip)" fill="none" points="952.5,934.5 931.5,934.5" stroke="black" stroke-linecap="round" stroke-width="1" /><polyline clip-path="url(#border_clip)" fill="none" points="952.5,904.5 931.5,904.5" stroke="black" stroke-linecap="round" stroke-width="1" /><polyline clip-path="url(#border_clip)" fill="none" points="952.5,874.5 931.5,874.5" stroke="black" stroke-linecap="round" stroke-width="1" /><polyline clip-path="url(#border_clip)" fill="none" points="952.5,844.5 931.5,844.5" stroke="black" stroke-linecap="round" stroke-width="1" /><polyline clip-path="url(#border_clip)" fill="none" points="952.5,814.5 931.5,814.5" stroke="black" stroke-linecap="round" stroke-width="1" /><polyline clip-path="url(#border_clip)" fill="none" points="916.5,934.5 886.5,934.5 886.5,754.5 856.5,754.5" stroke="black" stroke-linecap="round" stroke-width="1" /><polyline clip-path="url(#border_clip)" fill="none" points="916.5,904.5 895.5,904.5" stroke="black" stroke-linecap="round" stroke-width="1" /><polyline clip-path="url(#border_clip)" fill="none" points="916.5,874.5 895.5,874.5" stroke="black" stroke-linecap="round" stroke-width="1" /><polyline clip-path="url(#border_clip)" fill="none" points="916.5,844.5 895.5,844.5" stroke="black" stroke-linecap="round" stroke-width="1" /><polyline clip-path="url(#border_clip)" fill="none" points="916.5,814.5 895.5,814.5" stroke="black" stroke-linecap="round" stroke-width="1" /><polyline clip-path="url(#border_clip)" fill="none" points="916.5,784.5 895.5,784.5" stroke="black" stroke-linecap="round" stroke-width="1" /><polyline clip-path="url(#border_clip)" fill="none" points="880.5,904.5 850.5,904.5 850.5,724.5 820.5,724.5" stroke="black" stroke-linecap="round" stroke-width="1" /><polyline clip-path="url(#border_clip)" fill="none" points="880.5,874.5 859.5,874.5" stroke="black" stroke-linecap="round" stroke-width="1" /><polyline clip-path="url(#border_clip)" fill="none" points="880.5,844.5 859.5,844.5" stroke="black" stroke-linecap="round" stroke-width="1" /><polyline clip-path="url(#border_clip)" fill="none" points="880.5,814.5 859.5,814.5" stroke="black" stroke-linecap="round" stroke-width="1" /><polyline clip-path="url(#border_clip)" fill="none" points="880.5,784.5 859.5,784.5" stroke="black" stroke-linecap="round" stroke-width="1" /><polyline clip-path="url(#border_clip)" fill="none" points="880.5,754.5 859.5,754.5" stroke="black" stroke-linecap="round" stroke-width="1" /><polyline clip-path="url(#border_clip)" fill="none" points="844.5,874.5 814.5,874.5 814.5,694.5 784.5,694.5" stroke="black" stroke-linecap="round" stroke-width="1" /><polyline clip-path="url(#border_clip)" fill="none" points="844.5,844.5 823.5,844.5" stroke="black" stroke-linecap="round" stroke-width="1" /><polyline clip-path="url(#border_clip)" fill="none" points="844.5,814.5 823.5,814.5" stroke="black" stroke-linecap="round" stroke-width="1" /><polyline clip-path="url(#border_clip)" fill="none" points="844.5,784.5 823.5,784.5" stroke="black" stroke-linecap="round" stroke-width="1" /><polyline clip-path="url(#border_clip)" fill="none" points="844.5,754.5 823.5,754.5" stroke="black" stroke-linecap="round" stroke-width="1" /><polyline clip-path="url(#border_clip)" fill="none" points="844.5,724.5 823.5,724.5" stroke="black" stroke-linecap="round" stroke-width="1" /><polyline clip-path="url(#border_clip)" fill="none" points="808.5,844.5 778.5,844.5 778.5,664.5 748.5,664.5" stroke="black" stroke-linecap="round" stroke-width="1" /><polyline clip-path="url(#border_clip)" fill="none" points="808.5,814.5 787.5,814.5" stroke="black" stroke-linecap="round" stroke-width="1" /><polyline clip-path="url(#border_clip)" fill="none" points="808.5,784.5 787.5,784.5" stroke="black" stroke-linecap="round" stroke-width="1" /><polyline clip-path="url(#border_clip)" fill="none" points="808.5,754.5 787.5,754.5" stroke="black" stroke-linecap="round" stroke-width="1" /><polyline clip-path="url(#border_clip)" fill="none" points="808.5,724.5 787.5,724.5" stroke="black" stroke-linecap="round" stroke-width="1" /><polyline clip-path="url(#border_clip)" fill="none" points="808.5,694.5 787.5,694.5" stroke="black" stroke-linecap="round" stroke-width="1" /><polyline clip-path="url(#border_clip)" fill="none" points="772.5,814.5 742.5,814.5 742.5,634.5 712.5,634.5" stroke="black" stroke-linecap="round" stroke-width="1" /><polyline clip-path="url(#border_clip)" fill="none" points="772.5,784.5 751.5,784.5" stroke="black" stroke-linecap="round" stroke-width="1" /><polyline clip-path="url(#border_clip)" fill="none" points="772.5,754.5 751.5,754.5" stroke="black" stroke-linecap="round" stroke-width="1" /><polyline clip-path="url(#border_clip)" fill="none" points="772.5,724.5 751.5,724.5" stroke="black" stroke-linecap="round" stroke-width="1" /><polyline clip-path="url(#border_clip)" fill="none" points="772.5,694.5 751.5,694.5" stroke="black" stroke-linecap="round" stroke-width="1" /><polyline clip-path="url(#border_clip)" fill="none" points="772.5,664.5 751.5,664.5" stroke="black" stroke-linecap="round" stroke-width="1" /><polyline clip-path="url(#border_clip)" fill="none" points="736.5,784.5 706.5,784.5 706.5,604.5 676.5,604.5" stroke="black" stroke-linecap="round" stroke-width="1" /><polyline clip-path="url(#border_clip)" fill="none" points="736.5,754.5 715.5,754.5" stroke="black" stroke-linecap="round" stroke-width="1" /><polyline clip-path="url(#border_clip)" fill="none" points="736.5,724.5 715.5,724.5" stroke="black" stroke-linecap="round" stroke-width="1" /><polyline clip-path="url(#border_clip)" fill="none" points="736.5,694.5 715.5,694.5" stroke="black" stroke-linecap="round" stroke-width="1" /><polyline clip-path="url(#border_clip)" fill="none" points="736.5,664.5 715.5,664.5" stroke="black" stroke-linecap="round" stroke-width="1" /><polyline clip-path="url(#border_clip)" fill="none" points="736.5,634.5 715.5,634.5" stroke="black" stroke-linecap="round" stroke-width="1" /><polyline clip-path="url(#border_clip)" fill="none" points="700.5,754.5 670.5,754.5 670.5,574.5 640.5,574.5" stroke="black" stroke-linecap="round" stroke-width="1" /><polyline clip-path="url(#border_clip)" fill="none" points="700.5,724.5 679.5,724.5" stroke="black" stroke-linecap="round" stroke-width="1" /><polyline clip-path="url(#border_clip)" fill="none" points="700.5,694.5 679.5,694.5" stroke="black" stroke-linecap="round" stroke-width="1" /><polyline clip-path="url(#border_clip)" fill="none" points="700.5,664.5 679.5,664.5" stroke="black" stroke-linecap="round" stroke-width="1" /><polyline clip-path="url(#border_clip)" fill="none" points="700.5,634.5 679.5,634.5" stroke="black" stroke-linecap="round" stroke-width="1" /><polyline clip-path="url(#border_clip)" fill="none" points="700.5,604.5 679.5,604.5" stroke="black" stroke-linecap="round" stroke-width="1" /><polyline clip-path="url(#border_clip)" fill="none" points="664.5,724.5 634.5,724.5 634.5,544.5 604.5,544.5" stroke="black" stroke-linecap="round" stroke-width="1" /><polyline clip-path="url(#border_clip)" fill="none" points="664.5,694.5 643.5,694.5" stroke="black" stroke-linecap="round" stroke-width="1" /><polyline clip-path="url(#border_clip)" fill="none" points="664.5,664.5 643.5,664.5" stroke="black" stroke-linecap="round" stroke-width="1" /><polyline clip-path="url(#border_clip)" fill="none" points="664.5,634.5 643.5,634.5" stroke="black" stroke-linecap="round" stroke-width="1" /><polyline clip-path="url(#border_clip)" fill="none" points="664.5,604.5 643.5,604.5" stroke="black" stroke-linecap="round" stroke-width="1" /><polyline clip-path="url(#border_clip)" fill="none" points="664.5,574.5 643.5,574.5" stroke="black" stroke-linecap="round" stroke-width="1" /><polyline clip-path="url(#border_clip)" fill="none" points="628.5,694.5 598.5,694.5 598.5,514.5 568.5,514.5" stroke="black" stroke-linecap="round" stroke-width="1" /><polyline clip-path="url(#border_clip)" fill="none" points="628.5,664.5 607.5,664.5" stroke="black" stroke-linecap="round" stroke-width="1" /><polyline clip-path="url(#border_clip)" fill="none" points="628.5,634.5 607.5,634.5" stroke="black" stroke-linecap="round" stroke-width="1" /><polyline clip-path="url(#border_clip)" fill="none" points="628.5,604.5 607.5,604.5" stroke="black" stroke-linecap="round" stroke-width="1" /><polyline clip-path="url(#border_clip)" fill="none" points="628.5,574.5 607.5,574.5" stroke="black" stroke-linecap="round" stroke-width="1" /><polyline clip-path="url(#border_clip)" fill="none" points="628.5,544.5 607.5,544.5" stroke="black" stroke-linecap="round" stroke-width="1" /><polyline clip-path="url(#border_clip)" fill="none" points="592.5,664.5 562.5,664.5 562.5,484.5 532.5,484.5" stroke="black" stroke-linecap="round" stroke-width="1" /><polyline clip-path="url(#border_clip)" fill="none" points="592.5,634.5 571.5,634.5" stroke="black" stroke-linecap="round" stroke-width="1" /><polyline clip-path="url(#border_clip)" fill="none" points="592.5,604.5 571.5,604.5" stroke="black" stroke-linecap="round" stroke-width="1" /><polyline clip-path="url(#border_clip)" fill="none" points="592.5,574.5 571.5,574.5" stroke="black" stroke-linecap="round" stroke-width="1" /><polyline clip-path="url(#border_clip)" fill="none" points="592.5,544.5 571.5,544.5" stroke="black" stroke-linecap="round" stroke-width="1" /><polyline clip-path="url(#border_clip)" fill="none" points="592.5,514.5 571.5,514.5" stroke="black" stroke-linecap="round" stroke-width="1" /><polyline clip-path="url(#border_clip)" fill="none" points="556.5,634.5 520.5,634.5" stroke="black" stroke-linecap="round" stroke-width="1" /><polyline clip-path="url(#border_clip)" fill="none" points="556.5,604.5 520.5,604.5" stroke="black" stroke-linecap="round" stroke-width="1" /><polyline clip-path="url(#border_clip)" fill="none" points="556.5,574.5 520.5,574.5" stroke="black" stroke-linecap="round" stroke-width="1" /><polyline clip-path="url(#border_clip)" fill="none" points="556.5,544.5 520.5,544.5" stroke="black" stroke-linecap="round" stroke-width="1" /><polyline clip-path="url(#border_clip)" fill="none" points="556.5,514.5 520.5,514.5" stroke="black" stroke-linecap="round" stroke-width="1" /><polyline clip-path="url(#border_clip)" fill="none" points="556.5,484.5 520.5,484.5" stroke="black" stroke-linecap="round" stroke-width="1" /><polyline clip-path="url(#border_clip)" fill="none" points="1024.5,1024.5 1054.5,1024.5 1054.5,1054.5 504.5,1054.5000000000002 504.4999999999998,634.5000000000002 534.4999999999998,634.5000000000002" stroke="black" stroke-linecap="round" stroke-width="1" /><polyline clip-path="url(#border_clip)" fill="none" points="1024.5,994.5 1084.5,994.5 1084.5,1084.5 474.5,1084.5000000000005 474.49999999999966,604.5000000000003 534.4999999999997,604.5000000000002" stroke="black" stroke-linecap="round" stroke-width="1" /><polyline clip-path="url(#border_clip)" fill="none" points="1024.5,964.5 1114.5,964.4999999999999 1114.5,1114.5 444.5000000000001,1114.5000000000005 444.49999999999966,574.5000000000005 534.4999999999997,574.5000000000005" stroke="black" stroke-linecap="round" stroke-width="1" /><polyline clip-path="url(#border_clip)" fill="none" points="1024.5,934.5 1144.5,934.4999999999999 1144.5000000000002,1144.5 414.5000000000002,1144.5000000000007 414.49999999999955,544.5000000000007 534.4999999999995,544.5000000000005" stroke="black" stroke-linecap="round" stroke-width="1" /><polyline clip-path="url(#border_clip)" fill="none" points="1024.5,904.5 1174.5,904.4999999999998 1174.5000000000005,1174.4999999999998 384.50000000000034,1174.500000000001 384.49999999999943,514.5000000000009 534.4999999999994,514.5000000000007" stroke="black" stroke-linecap="round" stroke-width="1" /><polyline clip-path="url(#border_clip)" fill="none" points="1024.5,874.5 1204.5,874.4999999999998 1204.5000000000005,1204.4999999999998 354.50000000000045,1204.5000000000011 354.4999999999993,484.50000000000114 534.4999999999993,484.5000000000008" stroke="black" stroke-linecap="round" stroke-width="1" /></svg>