<?xml version="1.0" encoding="utf-8" ?>
<svg baseProfile="full" height="2048px" version="1.1" width="2048px" xmlns="http://www.w3.org/2000/svg" xmlns:ev="http://www.w3.org/2001/xml-events" xmlns:xlink="http://www.w3.org/1999/xlink"><defs /><polyline clip-path="url(#border_clip)" fill="none" points="1024.5,1024.5 994.5,1024.5 994.5,904.5 964.5,904.5" stroke="black" stroke-linecap="round" stroke-width="1" /><polyline clip-path="url(#border_clip)" fill="none" points="1024.5,994.5 1003.5,994.5" stroke="black" stroke-linecap="round" stroke-width="1" /><polyline clip-path="url(#border_clip)" fill="none" points="1024.5,964.5 1003.5,964.5" stroke="black" stroke-linecap="round" stroke-width="1" /><polyline clip-path="url(#border_clip)" fill="none" points="1024.5,934.5 1003.5,934.5" stroke="black" stroke-linecap="round" stroke-width="1" /><polyline clip-path="url(#border_clip)" fill="none" points="988.5,994.5 958.5,994.5 958.5,874.5 928.5,874.5" stroke="black" stroke-linecap="round" stroke-width="1" /><polyline clip-path="url(#border_clip)" fill="none" points="988.5,964.5 967.5,964.5" stroke="black" stroke-linecap="round" stroke-width="1" /><polyline clip-path="url(#border_clip)" fill="none" points="988.5,934.5 967.5,934.5" stroke="black" stroke-linecap="round" stroke-width="1" /><polyline clip-path="url(#border_clip)" fill="none" points="988.5,904.5 967.5,904.5" stroke="black" stroke-linecap="round" stroke-width="1" /><polyline clip-path="url(#border_clip)" fill="none" points="952.5,964.5 922.5,964.5 922.5,844.5 892.5,844.5" stroke="black" stroke-linecap="round" stroke-width="1" /><polyline clip-path="url(#border_clip)" fill="none" points="952.5,934.5 931.5,934.5" stroke="black" stroke-linecap="round" stroke-width="1" /><polyline clip-path="url(#border_clip)" fill="none" points="952.5,904.5 931.5,904.5" stroke="black" stroke-linecap="round" stroke-width="1" /><polyline clip-path="url(#border_clip)" fill="none" points="952.5,874.5 931.5,874.5" stroke="black" stroke-linecap="round" stroke-width="1" /><polyline clip-path="url(#border_clip)" fill="none" points="916.5,934.5 886.5,934.5 886.5,814.5 856.5,814.5" stroke="black" stroke-linecap="round" stroke-width="1" /><polyline clip-path="url(#border_clip)" fill="none" points="916.5,904.5 895.5,904.5" stroke="black" stroke-linecap="round" stroke-width="1" /><polyline clip-path="url(#border_clip)" fill="none" points="916.5,874.5 895.5,874.5" stroke="black" stroke-linecap="round" stroke-width="1" /><polyline clip-path="url(#border_clip)" fill="none" points="916.5,844.5 895.5,844.5" stroke="black" stroke-linecap="round" stroke-width="1" /><polyline clip-path="url(#border_clip)" fill="none" points="880.5,904.5 850.5,904.5 850.5,784.5 820.5,784.5" stroke="black" stroke-linecap="round" stroke-width="1" /><polyline clip-path="url(#border_clip)" fill="none" points="880.5,874.5 859.5,874.5" stroke="black" stroke-linecap="round" stroke-width="1" /><polyline clip-path="url(#border_clip)" fill="none" points="880.5,844.5 859.5,844.5" stroke="black" stroke-linecap="round" stroke-width="1" /><polyline clip-path="url(#border_clip)" fill="none" points="880.5,814.5 859.5,814.5" stroke="black" stroke-linecap="round" stroke-width="1" /><polyline clip-path="url(#border_clip)" fill="none" points="844.5,874.5 814.5,874.5 814.5,754.5 784.5,754.5" stroke="black" stroke-linecap="round" stroke-width="1" /><polyline clip-path="url(#border_clip)" fill="none" points="844.5,844.5 823.5,844.5" stroke="black" stroke-linecap="round" stroke-width="1" /><polyline clip-path="url(#border_clip)" fill="none" points="844.5,814.5 823.5,814.5" stroke="black" stroke-linecap="round" stroke-width="1" /><polyline clip-path="url(#border_clip)" fill="none" points="844.5,784.5 823.5,784.5" stroke="black" stroke-linecap="round" stroke-width="1" /><polyline clip-path="url(#border_clip)" fill="none" points="808.5,844.5 778.5,844.5 778.5,724.5 748.5,724.5" stroke="black" stroke-linecap="round" stroke-width="1" /><polyline clip-path="url(#border_clip)" fill="none" points="808.5,814.5 787.5,814.5" stroke="black" stroke-linecap="round" stroke-width="1" /><polyline clip-path="url(#border_clip)" fill="none" points="808.5,784.5 787.5,784.5" stroke="black" stroke-linecap="round" stroke-width="1" /><polyline clip-path="url(#border_clip)" fill="none" points="808.5,754.5 787.5,754.5" stroke="black" stroke-linecap="round" stroke-width="1" /><polyline clip-path="url(#border_clip)" fill="none" points="772.5,814.5 742.5,814.5 742.5,694.5 712.5,694.5" stroke="black" stroke-linecap="round" stroke-width="1" /><polyline clip-path="url(#border_clip)" fill="none" points="772.5,784.5 751.5,784.5" stroke="black" stroke-linecap="round" stroke-width="1" /><polyline clip-path="url(#border_clip)" fill="none" points="772.5,754.5 751.5,754.5" stroke="black" stroke-linecap="round" stroke-width="1" /><polyline clip-path="url(#border_clip)" fill="none" points="772.5,724.5 751.5,724.5" stroke="black" stroke-linecap="round" stroke-width="1" /><polyline clip-path="url(#border_clip)" fill="none" points="736.5,784.5 706.5,784.5 706.5,664.5 676.5,664.5" stroke="black" stroke-linecap="round" stroke-width="1" /><polyline clip-path="url(#border_clip)" fill="none" points="736.5,754.5 715.5,754.5" stroke="black" stroke-linecap="round" stroke-width="1" /><polyline clip-path="url(#border_clip)" fill="none" points="736.5,724.5 715.5,724.5" stroke="black" stroke-linecap="round" stroke-width="1" /><polyline clip-path="url(#border_clip)" fill="none" points="736.5,694.5 715.5,694.5" stroke="black" stroke-linecap="round" stroke-width="1" /><polyline clip-path="url(#border_clip)" fill="none" points="700.5,754.5 670.5,754.5 670.5,634.5 640.5,634.5" stroke="black" stroke-linecap="round" stroke-width="1" /><polyline clip-path="url(#border_clip)" fill="none" points="700.5,724.5 679.5,724.5" stroke="black" stroke-linecap="round" stroke-width="1" /><polyline clip-path="url(#border_clip)" fill="none" points="700.5,694.5 679.5,694.5" stroke="black" stroke-linecap="round" stroke-width="1" /><polyline clip-path="url(#border_clip)" fill="none" points="700.5,664.5 679.5,664.5" stroke="black" stroke-linecap="round" stroke-width="1" /><polyline clip-path="url(#border_clip)" fill="none" points="664.5,724.5 634.5,724.5 634.5,604.5 604.5,604.5" stroke="black" stroke-linecap="round" stroke-width="1" /><polyline clip-path="url(#border_clip)" fill="none" points="664.5,694.5 643.5,694.5" stroke="black" stroke-linecap="round" stroke-width="1" /><polyline clip-path="url(#border_clip)" fill="none" points="664.5,664.5 643.5,664.5" stroke="black" stroke-linecap="round" stroke-width="1" /><polyline clip-path="url(#border_clip)" fill="none" points="664.5,634.5 643.5,634.5" stroke="black" stroke-linecap="round" stroke-width="1" /><polyline clip-path="url(#border_clip)" fill="none" points="628.5,694.5 598.5,694.5 598.5,574.5 568.5,574.5" stroke="black" stroke-linecap="round" stroke-width="1" /><polyline clip-path="url(#border_clip)" fill="none" points="628.5,664.5 607.5,664.5" stroke="black" stroke-linecap="round" stroke-width="1" /><polyline clip-path="url(#border_clip)" fill="none" points="628.5,634.5 607.5,634.5" stroke="black" stroke-linecap="round" stroke-width="1" /><polyline clip-path="url(#border_clip)" fill="none" points="628.5,604.5 607.5,604.5" stroke="black" stroke-linecap="round" stroke-width="1" /><polyline clip-path="url(#border_clip)" fill="none" points="592.5,664.5 562.5,664.5 562.5,544.5 532.5,544.5" stroke="black" stroke-linecap="round" stroke-width="1" /><polyline clip-path="url(#border_clip)" fill="none" points="592.5,634.5 571.5,634.5" stroke="black" stroke-linecap="round" stroke-width="1" /><polyline clip-path="url(#border_clip)" fill="none" points="592.5,604.5 571.5,604.5" stroke="black" stroke-linecap="round" stroke-width="1" /><polyline clip-path="url(#border_clip)" fill="none" points="592.5,574.5 571.5,574.5" stroke="black" stroke-linecap="round" stroke-width="1" /><polyline clip-path="url(#border_clip)" fill="none" points="556.5,634.5 526.5,634.5 526.5,514.5 496.5,514.5" stroke="black" stroke-linecap="round" stroke-width="1" /><polyline clip-path="url(#border_clip)" fill="none" points="556.5,604.5 535.5,604.5" stroke="black" stroke-linecap="round" stroke-width="1" /><polyline clip-path="url(#border_clip)" fill="none" points="556.5,574.5 535.5,574.5" stroke="black" stroke-linecap="round" stroke-width="1" /><polyline clip-path="url(#border_clip)" fill="none" points="556.5,544.5 535.5,544.5" stroke="black" stroke-linecap="round" stroke-width="1" /><polyline clip-path="url(#border_clip)" fill="none" points="520.5,604.5 490.5,604.5 490.5,484.5 460.5,484.5" stroke="black" stroke-linecap="round" stroke-width="1" /><polyline clip-path="url(#border_clip)" fill="none" points="520.5,574.5 499.5,574.5" stroke="black" stroke-linecap="round" stroke-width="1" /><polyline clip-path="url(#border_clip)" fill="none" points="520.5,544.5 499.5,544.5" stroke="black" stroke-linecap="round" stroke-width="1" /><polyline clip-path="url(#border_clip)" fill="none" points="520.5,514.5 499.5,514.5" stroke="black" stroke-linecap="round" stroke-width="1" /><polyline clip-path="url(#border_clip)" fill="none" points="484.5,574.5 454.5,574.5 454.5,454.5 424.5,454.5" stroke="black" stroke-linecap="round" stroke-width="1" /><polyline clip-path="url(#border_clip)" fill="none" points="484.5,544.5 463.5,544.5" stroke="black" stroke-linecap="round" stroke-width="1" /><polyline clip-path="url(#border_clip)" fill="none" points="484.5,514.5 463.5,514.5" stroke="black" stroke-linecap="round" stroke-width="1" /><polyline clip-path="url(#border_clip)" fill="none" points="484.5,484.5 463.5,484.5" stroke="black" stroke-linecap="round" stroke-width="1" /><polyline clip-path="url(#border_clip)" fill="none" points="448.5,544.5 418.5,544.5 418.5,424.5 388.5,424.5" stroke="black" stroke-linecap="round" stroke-width="1" /><polyline clip-path="url(#border_clip)" fill="none" points="448.5,514.5 427.5,514.5" stroke="black" stroke-linecap="round" stroke-width="1" /><polyline clip-path="url(#border_clip)" fill="none" points="448.5,484.5 427.5,484.5" stroke="black" stroke-linecap="round" stroke-width="1" /><polyline clip-path="url(#border_clip)" fill="none" points="448.5,454.5 427.5,454.5" stroke="black" stroke-linecap="round" stroke-width="1" /><polyline clip-path="url(#border_clip)" fill="none" points="412.5,514.5 382.5,514.5 382.5,394.5 352.5,394.5" stroke="black" stroke-linecap="round" stroke-width="1" /><polyline clip-path="url(#border_clip)" fill="none" points="412.5,484.5 391.5,484.5" stroke="black" stroke-linecap="round" stroke-width="1" /><polyline clip-path="url(#border_clip)" fill="none" points="412.5,454.5 391.5,454.5" stroke="black" stroke-linecap="round" stroke-width="1" /><polyline clip-path="url(#border_clip)" fill="none" points="412.5,424.5 391.5,424.5" stroke="black" stroke-linecap="round" stroke-width="1" /><polyline clip-path="url(#border_clip)" fill="none" points="376.5,484.5 346.5,484.5 346.5,364.5 316.5,364.5" stroke="black" stroke-linecap="round" stroke-width="1" /><polyline clip-path="url(#border_clip)" fill="none" points="376.5,454.5 355.5,454.5" stroke="black" stroke-linecap="round" stroke-width="1" /><polyline clip-path="url(#border_clip)" fill="none" points="376.5,424.5 355.5,424.5" stroke="black" stroke-linecap="round" stroke-width="1" /><polyline clip-path="url(#border_clip)" fill="none" points="376.5,394.5 355.5,394.5" stroke="black" stroke-linecap="round" stroke-width="1" /><polyline clip-path="url(#border_clip)" fill="none" points="340.5,454.5 310.5,454.5 310.5,334.5 280.5,334.5" stroke="black" stroke-linecap="round" stroke-width="1" /><polyline clip-path="url(#border_clip)" fill="none" points="340.5,424.5 319.5,424.5" stroke="black" stroke-linecap="round" stroke-width="1" /><polyline clip-path="url(#border_clip)" fill="none" points="340.5,394.5 319.5,394.5" stroke="black" stroke-linecap="round" stroke-width="1" /><polyline clip-path="url(#border_clip)" fill="none" points="340.5,364.5 319.5,364.5" stroke="black" stroke-linecap="round" stroke-width="1" /><polyline clip-path="url(#border_clip)" fill="none" points="304.5,424.5 274.5,424.5 274.5,304.5 244.5,304.5" stroke="black" stroke-linecap="round" stroke-width="1" /><polyline clip-path="url(#border_clip)" fill="none" points="304.5,394.5 283.5,394.5" stroke="black" stroke-linecap="round" stroke-width="1" /><polyline clip-path="url(#border_clip)" fill="none" points="304.5,364.5 283.5,364.5" stroke="black" stroke-linecap="round" stroke-width="1" /><polyline clip-path="url(#border_clip)" fill="none" points="304.5,334.5 283.5,334.5" stroke="black" stroke-linecap="round" stroke-width="1" /><polyline clip-path="url(#border_clip)" fill="none" points="268.5,394.5 238.5,394.5 238.5,274.5 208.5,274.5" stroke="black" stroke-linecap="round" stroke-width="1" /><polyline clip-path="url(#border_clip)" fill="none" points="268.5,364.5 247.5,364.5" stroke="black" stroke-linecap="round" stroke-width="1" /><polyline clip-path="url(#border_clip)" fill="none" points="268.5,334.5 247.5,334.5" stroke="black" stroke-linecap="round" stroke-width="1" /><polyline clip-path="url(#border_clip)" fill="none" points="268.5,304.5 247.5,304.5" stroke="black" stroke-linecap="round" stroke-width="1" /><polyline clip-path="url(#border_clip)" fill="none" points="232.5,364.5 202.5,364.5 202.5,244.5 172.5,244.5" stroke="black" stroke-linecap="round" stroke-width="1" /><polyline clip-path="url(#border_clip)" fill="none" points="232.5,334.5 211.5,334.5" stroke="black" stroke-linecap="round" stroke-width="1" /><polyline clip-path="url(#border_clip)" fill="none" points="232.5,304.5 211.5,304.5" stroke="black" stroke-linecap="round" stroke-width="1" /><polyline clip-path="url(#border_clip)" fill="none" points="232.5,274.5 211.5,274.5" stroke="black" stroke-linecap="round" stroke-width="1" /><polyline clip-path="url(#border_clip)" fill="none" points="196.5,334.5 160.5,334.5" stroke="black" stroke-linecap="round" stroke-width="1" /><polyline clip-path="url(#border_clip)" fill="none" points="196.5,304.5 160.5,304.5" stroke="black" stroke-linecap="round" stroke-width="1" /><polyline clip-path="url(#border_clip)" fill="none" points="196.5,274.5 160.5,274.5" stroke="black" stroke-linecap="round" stroke-width="1" /><polyline clip-path="url(#border_clip)" fill="none" points="196.5,244.5 160.5,244.5" stroke="black" stroke-linecap="round" stroke-width="1" /><polyline clip-path="url(#border_clip)" fill="none" points="1024.5,1024.5 1054.5,1024.5 1054.5,1054.5 144.5,1054.5000000000002 144.49999999999966,334.50000000000034 174.49999999999966,334.50000000000034" stroke="black" stroke-linecap="round" stroke-width="1" /><polyline clip-path="url(#border_clip)" fill="none" points="1024.5,994.5 1084.5,994.5 1084.5,1084.5 114.5,1084.5000000000005 114.49999999999943,304.50000000000057 174.49999999999943,304.50000000000057" stroke="black" stroke-linecap="round" stroke-width="1" /><polyline clip-path="url(#border_clip)" fill="none" points="1024.5,964.5 1114.5,964.4999999999999 1114.5,1114.5 84.50000000000011,1114.500000000001 84.49999999999932,274.5000000000008 174.49999999999932,274.5000000000007" stroke="black" stroke-linecap="round" stroke-width="1" /><polyline clip-path="url(#border_clip)" fill="none" points="1024.5,934.5 1144.5,934.4999999999999 1144.5000000000002,1144.5 54.50000000000023,1144.5000000000011 54.499999999999204,244.50000000000114 174.4999999999992,244.50000000000102" stroke="black" stroke-linecap="round" stroke-width="1" /></svg>