<?xml version="1.0" encoding="utf-8" ?>
<svg baseProfile="full" height="2048px" version="1.1" width="2048px" xmlns="http://www.w3.org/2000/svg" xmlns:ev="http://www.w3.org/2001/xml-events" xmlns:xlink="http://www.w3.org/1999/xlink"><defs /><polyline clip-path="url(#border_clip)" fill="none" points="1024.5,1024.5 994.5,1024.5 994.5,964.5 964.5,964.5" stroke="black" stroke-linecap="round" stroke-width="1" /><polyline clip-path="url(#border_clip)" fill="none" points="1024.5,994.5 1003.5,994.5" stroke="black" stroke-linecap="round" stroke-width="1" /><polyline clip-path="url(#border_clip)" fill="none" points="988.5,994.5 958.5,994.5 958.5,934.5 928.5,934.5" stroke="black" stroke-linecap="round" stroke-width="1" /><polyline clip-path="url(#border_clip)" fill="none" points="988.5,964.5 967.5,964.5" stroke="black" stroke-linecap="round" stroke-width="1" /><polyline clip-path="url(#border_clip)" fill="none" points="952.5,964.5 922.5,964.5 922.5,904.5 892.5,904.5" stroke="black" stroke-linecap="round" stroke-width="1" /><polyline clip-path="url(#border_clip)" fill="none" points="952.5,934.5 931.5,934.5" stroke="black" stroke-linecap="round" stroke-width="1" /><polyline clip-path="url(#border_clip)" fill="none" points="916.5,934.5 880.5,934.5" stroke="black" stroke-linecap="round" stroke-width="1" /><polyline clip-path="url(#border_clip)" fill="none" points="916.5,904.5 880.5,904.5" stroke="black" stroke-linecap="round" stroke-width="1" /><polyline clip-path="url(#border_clip)" fill="none" points="1024.5,1024.5 1054.5,1024.5 1054.5,1054.5 864.5,1054.5 864.5,934.5 894.5,934.5" stroke="black" stroke-linecap="round" stroke-width="1" /><polyline clip-path="url(#border_clip)" fill="none" points="1024.5,994.5 1084.5,994.5 1084.5,1084.5 834.5,1084.5000000000002 834.5,904.5000000000001 894.5,904.5000000000001" stroke="black" stroke-linecap="round" stroke-width="1" /></svg>