<?xml version="1.0" encoding="utf-8" ?>
<svg baseProfile="full" height="2048px" version="1.1" width="2048px" xmlns="http://www.w3.org/2000/svg" xmlns:ev="http://www.w3.org/2001/xml-events" xmlns:xlink="http://www.w3.org/1999/xlink"><defs /><polyline clip-path="url(#border_clip)" fill="none" points="1024.5,1024.5 994.5,1024.5 994.5,904.5 964.5,904.5" stroke="black" stroke-linecap="round" stroke-width="1" /><polyline clip-path="url(#border_clip)" fill="none" points="1024.5,994.5 1003.5,994.5" stroke="black" stroke-linecap="round" stroke-width="1" /><polyline clip-path="url(#border_clip)" fill="none" points="1024.5,964.5 1003.5,964.5" stroke="black" stroke-linecap="round" stroke-width="1" /><polyline clip-path="url(#border_clip)" fill="none" points="1024.5,934.5 1003.5,934.5" stroke="black" stroke-linecap="round" stroke-width="1" /><polyline clip-path="url(#border_clip)" fill="none" points="988.5,994.5 958.5,994.5 958.5,874.5 928.5,874.5" stroke="black" stroke-linecap="round" stroke-width="1" /><polyline clip-path="url(#border_clip)" fill="none" points="988.5,964.5 967.5,964.5" stroke="black" stroke-linecap="round" stroke-width="1" /><polyline clip-path="url(#border_clip)" fill="none" points="988.5,934.5 967.5,934.5" stroke="black" stroke-linecap="round" stroke-width="1" /><polyline clip-path="url(#border_clip)" fill="none" points="988.5,904.5 967.5,904.5" stroke="black" stroke-linecap="round" stroke-width="1" /><polyline clip-path="url(#border_clip)" fill="none" points="952.5,964.5 922.5,964.5 922.5,844.5 892.5,844.5" stroke="black" stroke-linecap="round" stroke-width="1" /><polyline clip-path="url(#border_clip)" fill="none" points="952.5,934.5 931.5,934.5" stroke="black" stroke-linecap="round" stroke-width="1" /><polyline clip-path="url(#border_clip)" fill="none" points="952.5,904.5 931.5,904.5" stroke="black" stroke-linecap="round" stroke-width="1" /><polyline clip-path="url(#border_clip)" fill="none" points="952.5,874.5 931.5,874.5" stroke="black" stroke-linecap="round" stroke-width="1" /><polyline clip-path="url(#border_clip)" fill="none" points="916.5,934.5 886.5,934.5 886.5,814.5 856.5,814.5" stroke="black" stroke-linecap="round" stroke-width="1" /><polyline clip-path="url(#border_clip)" fill="none" points="916.5,904.5 895.5,904.5" stroke="black" stroke-linecap="round" stroke-width="1" /><polyline clip-path="url(#border_clip)" fill="none" points="916.5,874.5 895.5,874.5" stroke="black" stroke-linecap="round" stroke-width="1" /><polyline clip-path="url(#border_clip)" fill="none" points="916.5,844.5 895.5,844.5" stroke="black" stroke-linecap="round" stroke-width="1" /><polyline clip-path="url(#border_clip)" fill="none" points="880.5,904.5 850.5,904.5 850.5,784.5 820.5,784.5" stroke="black" stroke-linecap="round" stroke-width="1" /><polyline clip-path="url(#border_clip)" fill="none" points="880.5,874.5 859.5,874.5" stroke="black" stroke-linecap="round" stroke-width="1" /><polyline clip-path="url(#border_clip)" fill="none" points="880.5,844.5 859.5,844.5" stroke="black" stroke-linecap="round" stroke-width="1" /><polyline clip-path="url(#border_clip)" fill="none" points="880.5,814.5 859.5,814.5" stroke="black" stroke-linecap="round" stroke-width="1" /><polyline clip-path="url(#border_clip)" fill="none" points="844.5,874.5 814.5,874.5 814.5,754.5 784.5,754.5" stroke="black" stroke-linecap="round" stroke-width="1" /><polyline clip-path="url(#border_clip)" fill="none" points="844.5,844.5 823.5,844.5" stroke="black" stroke-linecap="round" stroke-width="1" /><polyline clip-path="url(#border_clip)" fill="none" points="844.5,814.5 823.5,814.5" stroke="black" stroke-linecap="round" stroke-width="1" /><polyline clip-path="url(#border_clip)" fill="none" points="844.5,784.5 823.5,784.5" stroke="black" stroke-linecap="round" stroke-width="1" /><polyline clip-path="url(#border_clip)" fill="none" points="808.5,844.5 778.5,844.5 778.5,724.5 748.5,724.5" stroke="black" stroke-linecap="round" stroke-width="1" /><polyline clip-path="url(#border_clip)" fill="none" points="808.5,814.5 787.5,814.5" stroke="black" stroke-linecap="round" stroke-width="1" /><polyline clip-path="url(#border_clip)" fill="none" points="808.5,784.5 787.5,784.5" stroke="black" stroke-linecap="round" stroke-width="1" /><polyline clip-path="url(#border_clip)" fill="none" points="808.5,754.5 787.5,754.5" stroke="black" stroke-linecap="round" stroke-width="1" /><polyline clip-path="url(#border_clip)" fill="none" points="772.5,814.5 742.5,814.5 742.5,694.5 712.5,694.5" stroke="black" stroke-linecap="round" stroke-width="1" /><polyline clip-path="url(#border_clip)" fill="none" points="772.5,784.5 751.5,784.5" stroke="black" stroke-linecap="round" stroke-width="1" /><polyline clip-path="url(#border_clip)" fill="none" points="772.5,754.5 751.5,754.5" stroke="black" stroke-linecap="round" stroke-width="1" /><polyline clip-path="url(#border_clip)" fill="none" points="772.5,724.5 751.5,724.5" stroke="black" stroke-linecap="round" stroke-width="1" /><polyline clip-path="url(#border_clip)" fill="none" points="736.5,784.5 706.5,784.5 706.5,664.5 676.5,664.5" stroke="black" stroke-linecap="round" stroke-width="1" /><polyline clip-path="url(#border_clip)" fill="none" points="736.5,754.5 715.5,754.5" stroke="black" stroke-linecap="round" stroke-width="1" /><polyline clip-path="url(#border_clip)" fill="none" points="736.5,724.5 715.5,724.5" stroke="black" stroke-linecap="round" stroke-width="1" /><polyline clip-path="url(#border_clip)" fill="none" points="736.5,694.5 715.5,694.5" stroke="black" stroke-linecap="round" stroke-width="1" /><polyline clip-path="url(#border_clip)" fill="none" points="700.5,754.5 664.5,754.5" stroke="black" stroke-linecap="round" stroke-width="1" /><polyline clip-path="url(#border_clip)" fill="none" points="700.5,724.5 664.5,724.5" stroke="black" stroke-linecap="round" stroke-width="1" /><polyline clip-path="url(#border_clip)" fill="none" points="700.5,694.5 664.5,694.5" stroke="black" stroke-linecap="round" stroke-width="1" /><polyline clip-path="url(#border_clip)" fill="none" points="700.5,664.5 664.5,664.5" stroke="black" stroke-linecap="round" stroke-width="1" /><polyline clip-path="url(#border_clip)" fill="none" points="1024.5,1024.5 1054.5,1024.5 1054.5,1054.5 648.5,1054.5000000000002 648.4999999999999,754.5000000000001 678.4999999999999,754.5000000000001" stroke="black" stroke-linecap="round" stroke-width="1" /><polyline clip-path="url(#border_clip)" fill="none" points="1024.5,994.5 1084.5,994.5 1084.5,1084.5 618.5,1084.5000000000002 618.4999999999998,724.5000000000002 678.4999999999998,724.5000000000002" stroke="black" stroke-linecap="round" stroke-width="1" /><polyline clip-path="url(#border_clip)" fill="none" points="1024.5,964.5 1114.5,964.4999999999999 1114.5,1114.5 588.5000000000001,1114.5000000000005 588.4999999999998,694.5000000000005 678.4999999999998,694.5000000000002" stroke="black" stroke-linecap="round" stroke-width="1" /><polyline clip-path="url(#border_clip)" fill="none" points="1024.5,934.5 1144.5,934.4999999999999 1144.5000000000002,1144.5 558.5000000000002,1144.5000000000005 558.4999999999997,664.5000000000005 678.4999999999997,664.5000000000003" stroke="black" stroke-linecap="round" stroke-width="1" /></svg>