<?xml version="1.0" encoding="utf-8" ?>
<svg baseProfile="full" height="4096px" version="1.1" width="4096px" xmlns="http://www.w3.org/2000/svg" xmlns:ev="http://www.w3.org/2001/xml-events" xmlns:xlink="http://www.w3.org/1999/xlink"><defs /><polyline clip-path="url(#border_clip)" fill="none" points="2048.5,2048.5 2018.5,2048.5 2018.5,1928.5 1988.5,1928.5" stroke="black" stroke-linecap="round" stroke-width="1" /><polyline clip-path="url(#border_clip)" fill="none" points="2048.5,2018.5 2027.5,2018.5" stroke="black" stroke-linecap="round" stroke-width="1" /><polyline clip-path="url(#border_clip)" fill="none" points="2048.5,1988.5 2027.5,1988.5" stroke="black" stroke-linecap="round" stroke-width="1" /><polyline clip-path="url(#border_clip)" fill="none" points="2048.5,1958.5 2027.5,1958.5" stroke="black" stroke-linecap="round" stroke-width="1" /><polyline clip-path="url(#border_clip)" fill="none" points="2012.5,2018.5 1982.5,2018.5 1982.5,1898.5 1952.5,1898.5" stroke="black" stroke-linecap="round" stroke-width="1" /><polyline clip-path="url(#border_clip)" fill="none" points="2012.5,1988.5 1991.5,1988.5" stroke="black" stroke-linecap="round" stroke-width="1" /><polyline clip-path="url(#border_clip)" fill="none" points="2012.5,1958.5 1991.5,1958.5" stroke="black" stroke-linecap="round" stroke-width="1" /><polyline clip-path="url(#border_clip)" fill="none" points="2012.5,1928.5 1991.5,1928.5" stroke="black" stroke-linecap="round" stroke-width="1" /><polyline clip-path="url(#border_clip)" fill="none" points="1976.5,1988.5 1946.5,1988.5 1946.5,1868.5 1916.5,1868.5" stroke="black" stroke-linecap="round" stroke-width="1" /><polyline clip-path="url(#border_clip)" fill="none" points="1976.5,1958.5 1955.5,1958.5" stroke="black" stroke-linecap="round" stroke-width="1" /><polyline clip-path="url(#border_clip)" fill="none" points="1976.5,1928.5 1955.5,1928.5" stroke="black" stroke-linecap="round" stroke-width="1" /><polyline clip-path="url(#border_clip)" fill="none" points="1976.5,1898.5 1955.5,1898.5" stroke="black" stroke-linecap="round" stroke-width="1" /><polyline clip-path="url(#border_clip)" fill="none" points="1940.5,1958.5 1910.5,1958.5 1910.5,1838.5 1880.5,1838.5" stroke="black" stroke-linecap="round" stroke-width="1" /><polyline clip-path="url(#border_clip)" fill="none" points="1940.5,1928.5 1919.5,1928.5" stroke="black" stroke-linecap="round" stroke-width="1" /><polyline clip-path="url(#border_clip)" fill="none" points="1940.5,1898.5 1919.5,1898.5" stroke="black" stroke-linecap="round" stroke-width="1" /><polyline clip-path="url(#border_clip)" fill="none" points="1940.5,1868.5 1919.5,1868.5" stroke="black" stroke-linecap="round" stroke-width="1" /><polyline clip-path="url(#border_clip)" fill="none" points="1904.5,1928.5 1874.5,1928.5 1874.5,1808.5 1844.5,1808.5" stroke="black" stroke-linecap="round" stroke-width="1" /><polyline clip-path="url(#border_clip)" fill="none" points="1904.5,1898.5 1883.5,1898.5" stroke="black" stroke-linecap="round" stroke-width="1" /><polyline clip-path="url(#border_clip)" fill="none" points="1904.5,1868.5 1883.5,1868.5" stroke="black" stroke-linecap="round" stroke-width="1" /><polyline clip-path="url(#border_clip)" fill="none" points="1904.5,1838.5 1883.5,1838.5" stroke="black" stroke-linecap="round" stroke-width="1" /><polyline clip-path="url(#border_clip)" fill="none" points="1868.5,1898.5 1838.5,1898.5 1838.5,1778.5 1808.5,1778.5" stroke="black" stroke-linecap="round" stroke-width="1" /><polyline clip-path="url(#border_clip)" fill="none" points="1868.5,1868.5 1847.5,1868.5" stroke="black" stroke-linecap="round" stroke-width="1" /><polyline clip-path="url(#border_clip)" fill="none" points="1868.5,1838.5 1847.5,1838.5" stroke="black" stroke-linecap="round" stroke-width="1" /><polyline clip-path="url(#border_clip)" fill="none" points="1868.5,1808.5 1847.5,1808.5" stroke="black" stroke-linecap="round" stroke-width="1" /><polyline clip-path="url(#border_clip)" fill="none" points="1832.5,1868.5 1802.5,1868.5 1802.5,1748.5 1772.5,1748.5" stroke="black" stroke-linecap="round" stroke-width="1" /><polyline clip-path="url(#border_clip)" fill="none" points="1832.5,1838.5 1811.5,1838.5" stroke="black" stroke-linecap="round" stroke-width="1" /><polyline clip-path="url(#border_clip)" fill="none" points="1832.5,1808.5 1811.5,1808.5" stroke="black" stroke-linecap="round" stroke-width="1" /><polyline clip-path="url(#border_clip)" fill="none" points="1832.5,1778.5 1811.5,1778.5" stroke="black" stroke-linecap="round" stroke-width="1" /><polyline clip-path="url(#border_clip)" fill="none" points="1796.5,1838.5 1766.5,1838.5 1766.5,1718.5 1736.5,1718.5" stroke="black" stroke-linecap="round" stroke-width="1" /><polyline clip-path="url(#border_clip)" fill="none" points="1796.5,1808.5 1775.5,1808.5" stroke="black" stroke-linecap="round" stroke-width="1" /><polyline clip-path="url(#border_clip)" fill="none" points="1796.5,1778.5 1775.5,1778.5" stroke="black" stroke-linecap="round" stroke-width="1" /><polyline clip-path="url(#border_clip)" fill="none" points="1796.5,1748.5 1775.5,1748.5" stroke="black" stroke-linecap="round" stroke-width="1" /><polyline clip-path="url(#border_clip)" fill="none" points="1760.5,1808.5 1730.5,1808.5 1730.5,1688.5 1700.5,1688.5" stroke="black" stroke-linecap="round" stroke-width="1" /><polyline clip-path="url(#border_clip)" fill="none" points="1760.5,1778.5 1739.5,1778.5" stroke="black" stroke-linecap="round" stroke-width="1" /><polyline clip-path="url(#border_clip)" fill="none" points="1760.5,1748.5 1739.5,1748.5" stroke="black" stroke-linecap="round" stroke-width="1" /><polyline clip-path="url(#border_clip)" fill="none" points="1760.5,1718.5 1739.5,1718.5" stroke="black" stroke-linecap="round" stroke-width="1" /><polyline clip-path="url(#border_clip)" fill="none" points="1724.5,1778.5 1688.5,1778.5" stroke="black" stroke-linecap="round" stroke-width="1" /><polyline clip-path="url(#border_clip)" fill="none" points="1724.5,1748.5 1688.5,1748.5" stroke="black" stroke-linecap="round" stroke-width="1" /><polyline clip-path="url(#border_clip)" fill="none" points="1724.5,1718.5 1688.5,1718.5" stroke="black" stroke-linecap="round" stroke-width="1" /><polyline clip-path="url(#border_clip)" fill="none" points="1724.5,1688.5 1688.5,1688.5" stroke="black" stroke-linecap="round" stroke-width="1" /><polyline clip-path="url(#border_clip)" fill="none" points="2048.5,2048.5 2078.5,2048.5 2078.5,2078.5 1672.5,2078.5 1672.5,1778.5 1702.5,1778.5" stroke="black" stroke-linecap="round" stroke-width="1" /><polyline clip-path="url(#border_clip)" fill="none" points="2048.5,2018.5 2108.5,2018.5 2108.5,2108.5 1642.5,2108.5000000000005 1642.4999999999998,1748.5000000000002 1702.4999999999998,1748.5000000000002" stroke="black" stroke-linecap="round" stroke-width="1" /><polyline clip-path="url(#border_clip)" fill="none" points="2048.5,1988.5 2138.5,1988.5 2138.5,2138.5 1612.5,2138.5000000000005 1612.4999999999998,1718.5000000000005 1702.4999999999998,1718.5000000000002" stroke="black" stroke-linecap="round" stroke-width="1" /><polyline clip-path="url(#border_clip)" fill="none" points="2048.5,1958.5 2168.5,1958.5 2168.5,2168.5 1582.5000000000002,2168.5000000000005 1582.4999999999995,1688.5000000000005 1702.4999999999995,1688.5000000000005" stroke="black" stroke-linecap="round" stroke-width="1" /></svg>